<?xml version="1.0" standalone="no"?>
<!DOCTYPE svg PUBLIC "-//W3C//DTD SVG 1.1//EN" "http://www.w3.org/Graphics/SVG/1.1/DTD/svg11.dtd" >
<svg xmlns="http://www.w3.org/2000/svg">
<metadata>Generated by IcoMoon</metadata>
<defs>
<font id="icomoon" horiz-adv-x="1024">
<font-face units-per-em="1024" ascent="960" descent="-64" />
<missing-glyph horiz-adv-x="1024" />
<glyph unicode="&#x20;" horiz-adv-x="512" d="" />
<glyph unicode="&#xe900;" glyph-name="f001" d="M510.208 849.6l-470.208-392.544h94.4l372.8 304.32 365.84-304.32h110.96l-473.792 392.544zM168.368 456.144v-361.744l255.856 0.32-0.64 181.472c0 0-2.352 30.16 27.664 30.16h98.928c36.592 0 34.336-30.16 34.336-30.16l-0.32-180.816h254.896v360.768l-332.896 273.2-337.824-273.2zM488.224 456.144h-63.984v61.216h63.984v-61.216zM488.224 546.576h-63.984v60.304h63.984v-60.304zM520.208 606.88h63.984v-60.304h-63.984v60.304zM520.208 517.36h63.984v-61.216h-63.984v61.216zM839.072 817.888h-94.96v-105.504l94.96-73.472v178.976z" />
<glyph unicode="&#xe901;" glyph-name="f002" d="M158.064 74h679.856v202.464h-679.856v-202.464zM94.352 276.464c-17.52 0-31.68-15.072-31.68-33.648v-135.232c0-18.56 14.16-33.6 31.68-33.6h46.528l-1.008 202.48h-45.52zM885.44 276.464h-30.336v-202.464h30.336c17.472 0 31.68 15.024 31.68 33.6v135.232c0 18.56-14.208 33.632-31.68 33.632zM126.032 308.96h45.2l0.992 134.272h-46.192c-17.52 0-31.728-13.984-31.728-32.528v-69.248c0-18.512 14.224-32.496 31.728-32.496zM885.44 341.44v69.248c0 18.544-14.192 33.568-31.664 33.568h-30.4v-135.296h30.4c17.472 0 31.664 13.984 31.664 32.48zM189.040 308.96h618.512l-0.336 135.296h-618.176v-135.296zM158.064 577.488h728.352c17.52 0 31.68 13.968 31.68 32.496v102.752c0 18.56-14.176 33.632-31.68 33.632h-728.352c-17.52 0-31.744-15.072-31.744-33.632v-102.752c0-18.528 14.224-32.496 31.744-32.496zM189.424 778.848h62.336v68.192h-62.336c-17.52 0-31.744-12.944-31.744-31.456v-5.296c0-18.496 14.224-31.44 31.744-31.44zM711.168 778.848v68.192h-443.264l0.384-68.192h442.88zM823.088 810.304v5.28c0 18.512-14.224 31.456-31.728 31.456h-62.72v-68.192h62.72c17.52 0 31.728 12.944 31.728 31.456zM869.552 544.992h-633.296l0.288-68.192h633.008v68.192zM949.792 544.992h-64.048v-68.192h64.048c17.52 0 31.68 12.944 31.68 31.456v5.232c0.016 18.56-14.16 31.504-31.68 31.504zM157.68 476.8h62.432v68.192h-62.432c-17.472 0-31.648-12.944-31.648-31.504v-5.232c0-18.528 14.176-31.456 31.648-31.456z" />
<glyph unicode="&#xe902;" glyph-name="f003" horiz-adv-x="1272" d="M1078.080 366.799v-297.298c0-18.817-11.289-37.633-30.106-37.633-3.763 0-3.763 0-7.527 0-15.053 7.527-30.106 18.817-41.395 33.869v797.812c11.289 15.053 26.343 26.343 41.395 33.869 18.817 3.763 33.869-11.289 37.633-30.106 0-3.763 0-7.527 0-7.527v-304.824c52.686 3.763 97.845-33.87 101.608-86.555s-33.869-97.845-86.555-101.608c-3.763 0-7.527 0-15.053 0zM475.959 295.298c3.763 0 0 338.693 0 338.693 184.4-3.763 361.272 63.976 492.987 191.926v-722.546c-131.714 127.951-312.351 195.689-492.987 191.926zM325.428-2l-75.265 297.298h-75.265c-15.053 37.633-26.343 75.265-33.869 112.898h-41.395c-22.58 0-37.633 15.053-37.633 37.633v37.633c0 22.58 15.053 37.633 37.633 37.633h41.395c7.527 37.633 18.817 75.265 33.869 112.898h263.428v-338.693h-75.265l7.527-37.633h37.633l18.817-75.265h-37.633l45.159-184.4h-109.134z" />
<glyph unicode="&#xe903;" glyph-name="f004" d="M876.8 575.2c24.4 28.4 39.2 64.6 39.2 104.4 0.2 87.6-71 159.2-160.8 164.2-3.2 0.2-6.2 0.2-9.6 0.2-40.8 0.2-78.2-13.6-107.6-36.2l107.6-104.8-21.2-20.8c-51.4 38.8-114.4 64-182.4 69.8v0.2c0 17-14 31-31 31s-31-14-31-31v-0.2c-68-5.8-130-31-181.2-69.8l-20.8 20.6 107.6 104.8c-29.4 22.8-66.8 36.4-107.4 36.2-3.2 0-6.4-0.2-9.6-0.2-90-5-161.2-76.6-160.8-164.2 0-39.6 14.8-76 39.2-104.4l108 105.2 19-19c-70.2-63.8-114.2-156-114.2-258.4 0-87.8 32.4-168 86-229.4l-72.8-89.2 25-20.2 70.4 85.8c63.2-60.4 148.8-97.8 243.2-97.8h0.2c0 0 0.4 0 0.6 0 94.4 0 180.4 37.4 243.6 97.8l70.4-86 24.6 20.2-73 89.4c53.6 61.6 86 141.8 86 229.4 0 102.2-44 194.6-114.4 258.6l19 19 108.2-105.2zM544 352h-224v32h192v256h32v-288z" />
<glyph unicode="&#xe904;" glyph-name="f005" d="M861.041 56.105c0-30.91-25.074-55.878-55.925-55.878h-698.703l97.849 461.131c0 30.879 24.92 55.906 55.77 55.906h642.928c30.856 0 55.829-25.027 55.829-55.906l-97.747-405.254zM218.162 559.208h628.871v54.891c0 30.879-25.076 55.906-55.878 55.906h-335.367v50.659c0 30.827-25.027 55.878-55.878 55.878h-279.543c-30.856 0-55.878-25.051-55.878-55.878v-664.559l97.747 447.176c0 30.881 25.074 55.927 55.925 55.927v0 0z" />
<glyph unicode="&#xe905;" glyph-name="f006" d="M397.744 742.656h237.504c0 0 62 3.008 67.008 72.992v50c0 0-6 65.504-82.496 65.504-76.48 0-219.488 0-219.488 0s-69.504 4.496-78.496-70.496v-48.496c-0.032-0.016 3.968-69.504 75.968-69.504zM816 868h-38.72v-98.8c0-44.192-35.808-80-80-80h-372c-44.192 0-80 35.808-80 80v98.8h-37.28c-44.192 0-80-35.92-80-80.272v-742.672c0-44.336 35.808-80.272 80-80.272h608c44.192 0 80 35.936 80 80.272v742.672c0 44.336-35.808 80.272-80 80.272zM768.288 166.080h-512.56c-17.664 0-32 14.336-32 32s14.336 32 32 32h512.528c17.664 0 32-14.336 32-32 0.032-17.712-14.32-32-31.968-32zM768.288 362.224h-512.56c-17.664 0-32 14.32-32 32 0 17.664 14.336 32 32 32h512.528c17.664 0 32-14.336 32-32 0.032-17.712-14.32-32-31.968-32zM768.288 558.32h-512.56c-17.664 0-32 14.336-32 32s14.336 32 32 32h512.528c17.664 0 32-14.336 32-32s-14.32-32-31.968-32z" />
<glyph unicode="&#xe906;" glyph-name="f007" d="M518.4 422.4l-384-326.4c102.4-96 230.4-160 377.6-160 275.2 0 499.2 217.6 512 486.4h-505.6zM486.4 960c-268.8-12.8-486.4-236.8-486.4-512 0-121.6 38.4-230.4 108.8-313.6l377.6 326.4v499.2zM928 748.8c-12.8 19.2-32 38.4-44.8 51.2l-345.6-300.8v-32h64l326.4 281.6zM678.4 934.4l-140.8-121.6v-83.2l211.2 179.2c-25.6 6.4-44.8 12.8-70.4 25.6zM793.6 876.8l-256-217.6v-83.2l307.2 268.8c-12.8 6.4-32 19.2-51.2 32zM960 473.6l57.6 51.2c-6.4 25.6-6.4 51.2-19.2 70.4l-140.8-121.6h102.4zM537.6 960v-83.2l83.2 70.4c-25.6 6.4-57.6 12.8-83.2 12.8zM684.8 473.6h102.4l204.8 172.736c-6.4 19.2-19.2 38.4-32 57.664l-275.2-230.4z" />
<glyph unicode="&#xe907;" glyph-name="f008" d="M861.978 171.415c-34.168 28.714-97.677 76.925-97.677 140.748 0 26.29 0 219.429 0 219.429h-0.522c-4.911 144.008-77.364 229.606-207.809 247.223 12.497 10.595 20.271 25.788 20.271 45.349 0 40.396-32.747 83.592-73.143 83.592s-73.143-43.196-73.143-83.592c0-19.56 7.774-34.753 20.271-45.349-130.466-17.617-202.898-103.215-207.809-247.223h-0.522c0 0 0-193.139 0-219.429 0-66.435-63.509-112.034-97.677-140.748-22.361-30.783 15.465-36.885 37.533-36.885 11.139 0 18.286 0 18.286 0h606.041c0 0 7.147 0 18.286 0 22.089 0 59.914 6.102 37.616 36.885zM492.607-11.755c62.109 0 113.539 45.202 123.507 104.49h-247.014c9.968-59.288 61.398-104.49 123.507-104.49z" />
<glyph unicode="&#xe908;" glyph-name="f010" d="M290.013 720.207c24.658 0.081 43.793 19.749 44.153 45.635 0.199 14.257 0.037 28.511 0.037 42.762h0.075c0 0.229 0.001 0.458 0.001 0.687 0.004 14.338 0.115 28.674-0.038 43.005-0.126 11.842-3.551 22.611-11.825 31.379-13.027 13.803-30.922 17.849-48.442 11.184-17.106-6.511-28.047-21.815-28.259-40.931-0.168-14.877-0.214-29.757-0.212-44.638 0.001-14.247 0.045-28.495 0.070-42.741 0.050-26.003 19.713-46.434 44.44-46.341zM737.217 719.377c24.658 0.081 43.793 19.749 44.153 45.635 0.199 14.257 0.037 28.511 0.037 42.762h0.075c0 0.229 0.001 0.458 0.001 0.687 0.004 14.338 0.115 28.674-0.038 43.005-0.126 11.842-3.551 22.611-11.825 31.379-13.027 13.803-30.922 17.849-48.442 11.184-17.106-6.511-28.047-21.815-28.259-40.931-0.168-14.877-0.214-29.757-0.212-44.638 0.001-14.247 0.045-28.495 0.070-42.741 0.050-26.003 19.713-46.434 44.44-46.341zM544.141 391.173h117.422v-87.472h-117.422v87.472zM722.855 510.396h117.236v-87.59h-117.236v87.59zM722.916 391.495h117.112v-87.795h-117.112v87.795zM365.473 271.875h117.23v-87.615h-117.23v87.615zM544.235 272.055h117.248v-87.454h-117.248v87.454zM722.973 271.949h117.323v-87.385h-117.323v87.385zM186.425 271.8h117.43v-87.454h-117.43v87.454zM186.692 391.054h117.225v-87.607h-117.225v87.607zM543.98 510.172h117.43v-87.447h-117.43v87.447zM365.212 390.985h117.409v-87.454h-117.409v87.454zM365.492 510.228h117.253v-87.552h-117.253v87.552zM942.384 809.291h-110.252c-0.034-5.253-0.078-10.505-0.15-15.758-0.746-53.559-38.755-94.769-88.796-98.193-2.279-0.268-4.598-0.425-6.959-0.433-2.907-0.011-5.758 0.202-8.548 0.6-48.994 4.503-86.682 46.683-86.782 99.551-0.008 4.744-0.019 9.489-0.029 14.233h-257.449c-0.034-5.253-0.078-10.505-0.15-15.758-0.778-55.835-42.049-98.256-95.234-98.431-53.335-0.199-95.745 43.868-95.851 99.956-0.008 4.744-0.019 9.489-0.029 14.233h-110.54c-9.612 0-17.405-7.792-17.405-17.404v-738.421c0-9.612 7.793-17.404 17.405-17.404h860.769c9.612 0 17.405 7.792 17.405 17.404v738.421c0 9.613-7.792 17.404-17.405 17.404zM907.425 94.031h-787.048v482.053h786.296v-429.867h0.75v-52.186z" />
<glyph unicode="&#xe909;" glyph-name="f011" d="M609.267 464.813c-18.927-3.006-37.482-6.2-53.376-31.018l-14.166-22.955c-2.006 92.97-84.845 134.149-151.998 134.149-68.074 0-125.998-36.046-164.982-137.715 0 0-31.749 15.297-12.423 44.079-101.896 1.887-149.793-73.155-149.793-159.994 0-86.827 69.829-160.673 158.359-160.673l324.123 0.478c137.622 0 198.911 95.179 198.911 178.921 1.904 130.545-49.291 154.726-134.654 154.726zM480.635 547.755c80.139-29.846 79.644-65.493 79.644-65.493s56.475 63.55 153.306 6.651c0 0 63.137-34.874 62.392-199.842 37.467 35.965 60.891 101.256 60.891 158.236 0 108.828-85.539 194.032-191.064 194.032-69.123 0-131.625-36.869-165.169-93.583zM666.46 688.608c8.564 0 15.494 7.155 15.494 15.987v63.898c0 8.804-6.93 15.96-15.494 15.96-8.553 0-15.482-7.156-15.482-15.96v-63.898c0-8.83 6.929-15.987 15.482-15.987zM945.307 449.969h-61.967c-8.55 0-15.48-7.155-15.48-15.988 0-8.806 6.93-15.96 15.48-15.96h61.967c8.554 0 15.496 7.156 15.496 15.96 0 8.832-6.943 15.988-15.496 15.988zM837.652 581.831c3.723-7.927 12.98-11.253 20.684-7.394l53.837 24.846c7.703 3.857 10.923 13.407 7.185 21.361-3.724 7.928-12.996 11.253-20.697 7.394l-53.827-24.845c-7.7-3.857-10.922-13.407-7.182-21.362zM819.003 645.992l42.284 44.638c5.691 6.57 5.147 16.679-1.225 22.558-6.383 5.879-16.172 5.321-21.878-1.25l-42.269-44.637c-5.708-6.57-5.161-16.678 1.208-22.558 6.383-5.879 16.173-5.321 21.879 1.249zM572.384 686.561c2.206-8.513 10.705-13.595 18.967-11.306 8.26 2.287 13.166 11.040 10.946 19.58l-16.998 61.713c-2.208 8.539-10.707 13.567-18.966 11.307-8.276-2.288-13.17-11.040-10.961-19.58l17.013-61.714zM869.441 506.468c2.22-8.537 10.707-13.591 18.966-11.304l59.87 13.54c8.258 2.288 13.165 11.039 10.946 19.552-2.222 8.539-10.709 13.592-18.981 11.305l-59.854-13.54c-8.26-2.288-13.168-11.039-10.947-19.553zM739.308 675.122c8.074-2.873 16.905 1.517 19.724 9.842l20.378 60.359c2.805 8.326-1.463 17.45-9.539 20.349-8.072 2.9-16.905-1.516-19.722-9.842l-20.378-60.358c-2.82-8.326 1.462-17.423 9.537-20.35zM484.865 647.005c5.706-6.571 15.496-7.155 21.88-1.277s6.93 15.987 1.224 22.558l-39.37 47.645c-5.708 6.571-15.496 7.156-21.882 1.25-6.369-5.879-6.929-15.961-1.221-22.558l39.369-47.618zM385.895 604.283l55.769-26.867c7.702-3.831 16.961-0.532 20.696 7.422 3.725 7.953 0.52 17.504-7.196 21.361l-55.769 26.84c-7.702 3.831-16.958 0.531-20.695-7.422-3.725-7.927-0.507-17.478 7.195-21.334zM913.133 266.673l-54.796 24.899c-7.69 3.832-16.961 0.478-20.698-7.448-3.726-7.928-0.506-17.504 7.196-21.335l54.8-24.845c7.702-3.884 16.971-0.534 20.694 7.394 3.741 7.928 0.52 17.503-7.196 21.335zM801.58 221.984c-5.707 6.597-15.496 7.127-21.88 1.276-6.371-5.906-6.916-16.016-1.21-22.558l41.297-46.658c5.707-6.598 15.51-7.13 21.881-1.279 6.37 5.906 6.93 16.016 1.223 22.612l-41.31 46.606zM943.418 355.295l-56.94 15.534c-8.272 2.263-16.761-2.793-18.981-11.306-2.208-8.511 2.686-17.303 10.962-19.539l56.95-15.588c8.262-2.287 16.746 2.822 18.969 11.335 2.222 8.499-2.686 17.249-10.96 19.565z" />
<glyph unicode="&#xe90a;" glyph-name="f012" d="M856.801 533.238h-67.376c-6.351 13.686-15.356 42.153-26.879 62.435l47.586 46.245c15.027 15.027 15.041 38.663 0.028 53.662l-54.319 53.991c-15 15-39.32 14.836-54.347-0.178l-44.931-47.654c-20.255 11.51-48.722 20.447-62.407 26.797v67.362c0 21.241-22.499 38.43-43.699 38.43h-76.819c-21.213 0-43.713-17.189-43.713-38.43v-67.376c-13.686-6.351-42.139-15.356-62.422-26.866l-46.259 47.586c-15.027 15.027-38.677 15.027-53.662 0.028l-53.991-54.333c-14.986-14.986-14.849-39.306 0.178-54.347l47.668-44.931c-11.523-20.283-20.447-48.736-26.797-62.422h-67.362c-21.254 0-38.444-22.499-38.444-43.699v-76.819c0-21.2 17.189-43.713 38.444-43.713h67.376c6.351-13.686 15.369-42.139 26.866-62.422l-47.586-46.272c-15.027-15.027-15.027-38.649-0.028-53.649l54.319-54.005c14.986-14.986 39.32-14.836 54.347 0.191l44.931 47.668c20.283-11.51 48.736-20.447 62.422-26.797v-67.376c0-21.241 22.499-38.43 43.699-38.43h76.819c21.2 0 43.713 17.189 43.713 38.444v67.376c13.686 6.351 42.139 15.369 62.435 26.879l46.259-47.586c15.027-15.027 38.649-15.027 53.649-0.028l54.005 54.319c14.986 15 14.836 39.32-0.191 54.347l-47.668 44.931c11.51 20.283 20.447 48.722 26.797 62.407h67.376c21.241 0 38.43 22.499 38.43 43.699v76.819c-0.001 21.216-17.191 43.716-38.446 43.716zM512.039 278.31c-95.459 0-172.839 77.38-172.839 172.826 0 95.459 77.38 172.839 172.839 172.839 95.473 0 172.839-77.38 172.839-172.839 0.001-95.446-77.366-172.826-172.839-172.826z" />
<glyph unicode="&#xe90b;" glyph-name="f013" d="M209.455 231.564c9.309 6.982 20.945 2.327 30.255 2.327 41.891-123.345 134.982-165.236 244.364-174.545 37.236-2.327 88.436-11.636 111.709 23.273 27.927 46.545-83.782 90.764-111.709 76.8-109.382-53.527-146.618 6.982-179.2 95.418 13.964 6.982 27.927 16.291 32.582 13.964 111.709-62.836 216.436-74.473 337.455-9.309 32.582 18.618 118.691-41.891 162.909-79.127 116.364-95.418 116.364-244.364 116.364-244.364h-884.364s0 186.182 139.636 295.564zM784.291 613.236c-53.527 60.509-107.055 121.018-165.236 183.855-107.055-93.091-223.418-197.818-400.291-179.2 4.655 174.545 107.055 342.109 293.236 342.109s279.273-167.564 272.291-346.764zM221.091 587.636c16.291-67.491 32.582-128 48.873-190.836-74.473-44.218-100.073 4.655-121.018 65.164-23.273 69.818-16.291 116.364 72.145 125.673zM751.709 385.164c18.618 72.145 34.909 132.655 51.2 190.836 6.982 4.655 13.964 9.309 23.273 13.964 16.291-32.582 48.873-67.491 41.891-93.091-13.964-51.2-16.291-132.655-116.364-111.709z" />
<glyph unicode="&#xe90c;" glyph-name="f014" d="M424.448 852.48v-541.696c0-34.816 14.848-47.104 56.832-47.104 129.536 0 259.072 0.512 388.608 0.512 6.144 0 12.288-0.512 23.040-1.536 0-49.664 2.048-98.304-1.536-146.944-0.512-9.728-21.504-25.088-33.28-25.6-230.4-1.536-460.288-1.024-690.688-1.024-31.232 0-36.864 20.48-36.864 45.568v656.896c0 50.176 10.752 60.416 61.952 60.416 76.288 0.512 153.088 0.512 231.936 0.512zM892.928 614.4c0-62.976-1.024-125.952 0.512-188.928 1.024-32.768-13.824-45.056-44.032-45.056h-203.264c-28.16 0-39.936 13.824-39.936 41.984 0.512 129.536 0.512 259.072 0 388.608 0 29.184 12.288 40.96 40.448 40.96 69.12-0.512 138.24-0.512 207.36 0 29.184 0 39.936-13.824 39.424-41.984-1.024-64.512-0.512-130.048-0.512-195.584z" />
<glyph unicode="&#xe90d;" glyph-name="f015" d="M517.408 355.313l41.962-40.925-26.939-26.939c0 0-19.684-20.722 5.958-47.141l211.099-209.803c0 0 20.203-18.131 42.478-2.59l105.68 102.57c0 0 18.649 24.866-6.217 47.658l-209.287 207.215c0 0-22.793 22.274-48.177 3.108l-27.455-27.975-44.033 43.516-45.069-48.695zM488.398 476.015l-226.381 223.272v68.898l-133.653 79.26-66.136-64.236 80.641-128.473 70.971-0.518 223.272-219.646 51.286 41.442zM123.183 100.438c0 0 0 34.191 35.745 34.191 0 0 32.119-1.037 33.153-34.191 0 0-1.036-31.082-34.45-33.153l-29.786-29.528c0 0 43.514-40.406 92.728 0l403.548 432.559c0 0 44.033-29.527 110.342-29.010 0 0 80.986-3.107 144.531 52.15 0 0 123.985 97.216 60.439 249.346l-144.358-139.524-122.256 120.874 144.359 138.142c0 0-91.864 53.875-216.194-24.175 0 0-64.237-44.897-83.576-125.709 0 0-29.008-96.009 35.92-182.348l-453.796-372.292c0 0-28.32-27.63-14.506-68.381l38.159 11.049zM123.183 100.438c0 0 2.762-32.464 34.45-33.153l-29.786-29.528c0 0-39.172 33.635-42.823 51.632l38.16 11.049z" />
<glyph unicode="&#xe90e;" glyph-name="f016" d="M755.961 351.070c-4.092 3.475-6.205 5.458-8.51 7.184-23.717 17.745-32.249 37.783-27.634 70.237 16.931 119.058-79.529 217.128-176.848 227.701-122.766 13.34-223.788-63.93-239.374-181.925-18.61-140.91 105.791-258.776 245.705-232.061 15.712 2.999 26.318-0.38 36.609-11.76 7.283-8.061 16.479-14.4 27.86-24.102-32.044-16.776-32.499-43.053-30.816-69.977 1.654-26.532-3.245-52.086-29.631-62.782-28.795-11.677-61.42-14.111-88.32 3.408-12.363 8.055-18.755 27.993-23.663 43.847-3.718 12.011-0.58 26.080-0.885 39.227-0.48 20.978-10.064 36.5-29.497 44.682-19.403 8.165-37.173 4.672-52.417-10.182-9.417-9.179-18.584-18.629-28.265-27.529-18.755-17.236-44.953-22.264-64.156-8.282-16.783 12.223-32.223 27.584-44.538 44.297-13.493 18.317-8.131 46.603 8.478 64.353 8.95 9.58 18.831 18.3 27.997 27.689 13.367 13.686 18.168 30.245 12.363 48.394-6.055 18.914-19.954 30.729-39.703 33.33-15.156 1.996-30.612 1.596-45.931 2.361-33.070 1.644-52.29 20.864-53.702 54.015-0.438 10.212-0.409 20.468-0.038 30.683 1.228 34.17 22.744 55.298 57.014 56.055 12.416 0.271 24.882-0.489 37.26 0.243 20.606 1.212 36.714 10.783 44.382 30.245 7.626 19.348 3.379 37.264-11.643 52.211-8.272 8.24-16.542 16.496-24.639 24.914-3.509 3.65-7.163 7.368-9.753 11.658-18.075 29.939-7.378 59.715 33.118 92.95 23.562 19.34 52.211 18.38 75.214-2.82 9.664-8.911 18.643-18.568 28.345-27.43 15.54-14.212 33.897-17.34 52.817-9.153 18.117 7.834 28.369 22.242 28.198 43.001-0.113 13.87-0.18 27.793 0.823 41.612 1.949 26.841 19.332 47.785 45.488 51.519 17.126 2.444 35.152 2.414 52.291 0.030 24.64-3.429 42.364-25.245 43.704-50.591 0.778-14.575-0.667-29.297 0.514-43.822 1.658-20.268 10.934-35.819 30.984-43.784 20.222-8.030 37.098-2.811 52.020 11.636 6.297 6.097 12.207 12.599 18.408 18.796 4.126 4.127 8.165 8.441 12.775 11.991 29.283 22.538 61.9 13.026 97.107-28.124 21.458-25.078 20.033-54.863-3.546-78.268-9.321-9.253-19.124-18.207-27.271-28.435-12.713-15.949-16.963-34.454-7.438-53.243 8.921-17.591 24.418-26.536 44.553-26.528 12.424 0.009 24.869 0.443 37.26-0.153 29.56-1.429 50.72-18.973 54.384-47.225 2.047-15.777 2.064-32.278-0.067-48.039-3.791-28.052-25.843-46.194-54.449-47.288-8.758-0.338-17.582-0.643-26.302 0.046-22.752 1.789-41.579-5.281-56.631-24.81v0zM363.979 486.21c18.066-18.944 35.831-38.18 54.258-56.764 35.117-35.427 80.777-36.529 114.6-3.223 34.897 34.354 34.362 79.286-2.226 115.603-18.645 18.499-38.497 35.781-56.154 56.521 47.246 14.074 90.041 6.353 128.374-20.427 60.757-42.456 83.441-114.111 58.655-183.925-4.718-13.289-0.789-19.95 7.617-28.182 45.408-44.455 90.758-88.979 135.678-133.927 25.775-25.797 24.418-56.659-2.476-80.001-21.658-18.793-48.666-18.091-70.641 3.399-45.45 44.44-90.567 89.229-135.169 134.513-10.362 10.515-18.459 13.23-33.74 8.089-59.826-20.135-114.383-7.843-159.976 35.653-42.832 40.856-55.761 91.802-45.324 148.792 2.176 1.29 4.352 2.585 6.524 3.879v0zM768.277 219.319c-15.127-1.792-25.342-9.639-26.712-25.726-1.248-14.642 12.3-27.927 27.183-27.956 15.101-0.025 27.617 12.741 26.753 28.119-0.93 16.546-10.949 24.2-27.224 25.562v0z" />
<glyph unicode="&#xe90f;" glyph-name="f017" d="M549.316 148.823l-130.174-0.016 0.015 89.564 240.973 0.016c13.812-0.001 24.972 10.36 24.956 23.176v472.136c0.016 12.852-11.145 23.18-24.956 23.18l-619.588 0.014c-13.796-0.014-24.987-10.346-25.002-23.193l0.015-472.146c0.014-12.824 11.191-23.167 24.987-23.183h240.957l0.018-89.561h-130.159c-15.886 0-28.767-12.91-28.767-28.766l0.015-38.344 455.478 0.001-0.016 38.344c0.001 15.855-12.909 28.764-28.752 28.778zM86.385 309.23l-0.015 376.76 527.906 0.015-0.016-376.792-527.875 0.016zM979.519 885.702h-534.586c-17.815 0-32.266-11.427-32.253-25.431l0.001-84.509 247.464 0.013c24.19 0.001 43.854-18.835 43.854-42.077v-472.134c0-23.179-19.68-42.088-43.867-42.090l-222.063 0.015-0.015-51.772 111.276 0.004c26.261 0 47.648-21.388 47.648-47.679l0.015-30.934 382.525-0.030c17.829 0.016 32.296 11.399 32.296 25.448v745.757c0 13.993-14.457 25.41-32.296 25.418zM799.51 446.47c-23.302 0-42.302 18.407-42.319 40.98 0 22.557 19.033 40.935 42.299 40.935 23.345-0.015 42.389-18.379 42.389-40.935 0-22.587-19.059-40.994-42.37-40.98zM921.098 446.47c-23.314-0.014-42.297 18.407-42.315 40.98 0 22.558 18.984 40.92 42.299 40.935 23.327-0.001 42.326-18.378 42.326-40.935-0.011-22.573-18.999-40.994-42.311-40.98zM963.41 596.236c0-10.641-8.565-19.268-19.251-19.283l-208.677 0.001v177.555l208.677-0.001c10.688-0.014 19.251-8.641 19.254-19.282l-0.002-138.99zM557.193 654.419c-13.903 0.002-25.226-11.027-25.195-24.691-0.017-7.335 3.317-13.931 8.622-18.526l-83.796-185.143c-1.837 0.447-3.779 0.61-5.749 0.625-0.224-0.016-0.459-0.016-0.608-0.017l-63.345 109.378c8.166 4.045 13.77 12.406 13.781 21.994 0.002 13.548-11.217 24.678-25.090 24.678-13.901 0-25.151-11.129-25.166-24.664 0-4.979 1.482-9.484 3.913-13.338l-61.183-85.605c-3.138 1.364-6.682 2.15-10.209 2.15-7.323 0-13.904-3.142-18.484-7.958l-25.018 9.129c-0.726 13.055-11.663 23.433-25.106 23.447-13.856-0.014-25.183-11.044-25.166-24.632-0.014-4.996 1.466-9.706 4.135-13.56l-41.794-45.708c-2.58 0.89-5.323 1.405-8.287 1.405-13.812 0.001-25.092-11.129-25.091-24.734 0.014-13.622 11.279-24.646 25.092-24.648 13.916 0.015 25.196 11.026 25.196 24.662-0.013 5.707-2.047 10.998-5.38 15.225l40.995 44.756c3.069-1.319 6.64-2.163 10.301-2.149 9.205-0.015 17.265 4.967 21.61 12.271l22.26-8.123c-0.296-1.301-0.443-2.695-0.443-4.177-0.001-13.547 11.234-24.692 25.18-24.676 13.827 0.015 25.119 11.131 25.133 24.691 0.002 5.069-1.555 9.766-4.191 13.619l61.136 85.532c2.282-1.037 4.652-1.749 7.114-2.133l64.485-111.144c-6.578-4.445-10.923-11.929-10.907-20.332-0.017-13.534 11.309-24.677 25.135-24.664 13.884-0.015 25.15 11.131 25.136 24.664 0.028 6.67-2.771 12.759-7.1 17.234l84.151 186.122c1.29-0.192 2.537-0.341 3.927-0.341 13.842 0 25.061 11.131 25.076 24.692 0.003 13.662-11.231 24.688-25.072 24.688z" />
<glyph unicode="&#xe910;" glyph-name="f018" d="M569.6 844.8v115.2h-115.2v-115.2h-454.4v-115.2h57.6v-576h358.4l-224-172.8 38.4-44.8 275.2 224 275.2-224 38.4 44.8-217.6 179.2h364.8v576h57.6v108.8h-454.4zM908.8 217.6h-793.6v512h793.6v-512zM281.6 332.8v172.8h172.8c0 83.2-70.4 147.2-153.6 147.2s-153.6-70.4-153.6-153.6c6.4-83.2 51.2-166.4 134.4-166.4zM339.2 275.2c89.6 0 172.8 89.6 172.8 172.8h-172.8v-172.8zM793.6 620.8h-166.4v-57.6h172.8v57.6zM793.6 505.6h-166.4v-57.6h172.8v57.6zM793.6 390.4h-166.4v-57.6h172.8v57.6z" />
<glyph unicode="&#xe911;" glyph-name="f019" d="M896 896h-64c0 35.346-28.654 64-64 64v0h-640c-35.346 0-64-28.654-64-64v0-768c0-35.346 28.654-64 64-64v0-64c0-35.346 28.654-64 64-64v0h704c35.346 0 64 28.654 64 64v0 832c0 35.346-28.654 64-64 64v0zM415.36 896h192c0.19 0.004 0.415 0.006 0.64 0.006 17.673 0 32-14.327 32-32 0-0.002 0-0.005 0-0.007v0c0.004-0.19 0.007-0.415 0.007-0.64 0-17.32-14.040-31.36-31.36-31.36-0.002 0-0.005 0-0.007 0h-192c-0.19-0.004-0.415-0.006-0.64-0.006-17.673 0-32 14.327-32 32 0 0.002 0 0.005 0 0.007v0c-0.004 0.19-0.007 0.415-0.007 0.64 0 17.32 14.040 31.36 31.36 31.36 0.002 0 0.005 0 0.007 0v0zM223.36 704h448c17.673 0 32-14.327 32-32s-14.327-32-32-32v0h-448c-17.536 0.181-31.682 14.439-31.682 32 0 17.674 14.328 32.002 32.002 32.002 0.113 0 0.225-0.001 0.337-0.002h-0.017zM223.36 512h448c17.673 0 32-14.327 32-32s-14.327-32-32-32v0h-448c-17.536 0.181-31.682 14.439-31.682 32 0 17.674 14.328 32.002 32.002 32.002 0.113 0 0.225-0.001 0.337-0.002h-0.017zM223.36 256h448c17.673 0 32-14.327 32-32s-14.327-32-32-32v0h-448c-17.536 0.181-31.682 14.439-31.682 32 0 17.674 14.328 32.002 32.002 32.002 0.113 0 0.225-0.001 0.337-0.002h-0.017zM896 0h-704v64h576c35.346 0 64 28.654 64 64v0 704h64v-832z" />
<glyph unicode="&#xe912;" glyph-name="f020" d="M897.024 486.336c-11.248-32.864-42.128-54.976-76.88-55.040h-38.4c-34.832-0.144-65.824 22.080-76.928 55.104-31.12-15.328-68.544-9.216-93.168 15.232l-27.216 27.264c-9.856 10.464-16.72 23.392-19.824 37.44h-416.256v81.152h385.456c-12.56 14.304-19.6 32.624-19.824 51.648v38.272c0 21.824 8.576 42.304 24 57.6 8.768 8.832 19.392 15.36 31.040 19.328-5.536 11.168-8.368 23.456-8.336 35.904 0 21.568 8.448 41.664 23.616 56.96h-522.672c-34.016-0.032-61.6-27.6-61.632-61.632v-829.248c0.032-34 27.568-61.568 61.568-61.632h829.312c34.064 0 61.664 27.6 61.696 61.632v465.472c-6.464-1.6-12.736-3.84-19.52-3.84-12.736 0-24.96 2.88-36.032 8.384zM146.688 352.192v81.216h610.368v-81.216h-610.368zM791.744 213.44v-79.872h-643.392v81.152h643.392v-1.28zM1019.008 749.568c-3.2 3.248-7.6 5.072-12.16 5.056h-22.592c-8.928 0.432-16.72 6.192-19.776 14.592l-11.76 28.672c-3.904 8.032-2.512 17.664 3.52 24.256l16 16c6.672 6.736 6.672 17.584 0 24.32l-27.216 27.136c-6.752 6.592-17.536 6.592-24.272 0l-16-16c-4.048-3.776-9.424-5.824-14.992-5.696-3.216-0.032-6.4 0.704-9.264 2.176l-28.608 11.84c-8.4 3.024-14.192 10.784-14.656 19.712v22.528c-0.032 9.472-7.68 17.152-17.152 17.216h-38.336c-9.488-0.032-17.168-7.712-17.2-17.216v-22.592c-0.4-8.944-6.176-16.752-14.592-19.776l-28.608-11.776c-2.848-1.472-6.016-2.224-9.216-2.176-5.536-0.128-10.88 1.92-14.912 5.696l-16.064 16c-6.752 6.672-17.6 6.672-24.32 0l-27.088-27.136c-3.184-3.232-5.008-7.6-5.040-12.16 0-4.544 1.792-8.896 5.040-12.096l16-16.064c6.064-6.592 7.456-16.208 3.536-24.256l-11.776-28.544c-3.008-8.448-10.816-14.24-19.776-14.656h-22.592c-4.56 0.016-8.944-1.808-12.16-5.056-3.248-3.216-5.056-7.6-5.040-12.16v-38.336c0-4.608 1.792-8.96 5.040-12.16 3.216-3.232 7.616-5.024 12.16-4.992h22.592c8.384 0 17.216-6.592 19.712-14.592l11.84-28.672c3.92-8.032 2.528-17.664-3.536-24.256l-16.064-16c-6.624-6.752-6.624-17.568 0-24.32l27.216-27.136c6.72-6.64 17.52-6.64 24.256 0l16 16c4.032 3.76 9.392 5.792 14.912 5.696 3.328 0 6.592-0.768 9.28-2.176l28.672-11.776c8.128-2.56 14.592-11.392 14.592-19.776v-22.528c0-9.472 7.664-17.152 17.136-17.152 0.032 0 0.064 0 0.064 0h38.336c9.472 0 17.152 7.68 17.152 17.152v22.528c0 8.384 6.592 17.216 14.592 19.776l28.672 11.776c2.864 1.488 6.048 2.24 9.28 2.176 5.824 0 11.392-2.112 14.976-5.696l15.936-15.936c6.576-6.72 17.36-6.832 24.080-0.24 0.064 0.048 0.128 0.112 0.192 0.176l27.184 27.136c6.672 6.736 6.672 17.584 0 24.32l-16 16c-5.936 6.64-7.328 16.208-3.52 24.256l11.84 28.608c3.040 8.4 10.832 14.16 19.76 14.592h22.528c9.504 0.064 17.152 7.744 17.184 17.216v38.4c0.032 4.528-1.776 8.896-4.992 12.096zM801.024 635.84c-45.504 0-82.496 36.992-82.496 82.432s37.008 82.432 82.496 82.432c45.52-2.544 80.368-41.504 77.824-87.024-2.32-41.984-35.84-75.504-77.824-77.84z" />
<glyph unicode="&#xe913;" glyph-name="f021" d="M742.3 820.744c71.321 0 135.471 30.282 179.1 53.192 0 0-2.988-106.982 11.754-211.574 10.957-78.095 30.082-193.644 30.082-193.644-43.829-22.911-149.616-77.099-220.937-77.099s-135.471 12.551-179.1 35.461c-43.829 22.911-93.833 39.446-165.155 39.446s-103.595-28.289-147.225-51.2l-39.844 433.108c43.829 22.911 101.802 51.2 173.124 51.2s135.471-16.535 179.1-39.446c43.829-22.911 107.779-39.446 179.1-39.446zM121.326 946.054c25.7 0 46.618-20.719 46.618-46.618l78.493-915.823-93.037-7.969-78.693 923.791c0 25.899 20.719 46.618 46.618 46.618zM246.637-17.581c0-25.7-20.918-46.419-46.419-46.419v0c-25.7 0-46.419 20.918-46.419 46.419v0c0 25.7 20.918 46.419 46.419 46.419v0c25.5 0.199 46.419-20.719 46.419-46.419v0z" />
<glyph unicode="&#xe914;" glyph-name="f022" d="M598.4 960h-169.6c-25.6 0-44.8-19.2-44.8-41.6s19.2-41.6 41.6-41.6h169.6c22.4 0 41.6 19.2 41.6 41.6 3.2 22.4-16 41.6-38.4 41.6zM256 960h-118.4c-76.8 0-137.6-60.8-137.6-137.6v-118.4c0-22.4 19.2-41.6 41.6-41.6s44.8 19.2 44.8 41.6v118.4c0 28.8 22.4 51.2 51.2 51.2h118.4c22.4 0 41.6 19.2 41.6 41.6 0 25.6-19.2 44.8-41.6 44.8zM41.6 320c22.4 0 41.6 19.2 41.6 41.6v169.6c0 22.4-19.2 41.6-41.6 41.6s-41.6-16-41.6-38.4v-169.6c0-25.6 19.2-44.8 41.6-44.8zM256 22.4h-118.4c-28.8 0-51.2 22.4-51.2 51.2v118.4c0 22.4-19.2 41.6-41.6 41.6s-44.8-19.2-44.8-41.6v-118.4c0-76.8 60.8-137.6 137.6-137.6h118.4c22.4 0 41.6 19.2 41.6 41.6 0 25.6-19.2 44.8-41.6 44.8zM598.4 22.4h-169.6c-22.4 0-41.6-19.2-41.6-41.6s19.2-41.6 41.6-41.6h169.6c22.4 0 41.6 19.2 41.6 41.6s-19.2 41.6-41.6 41.6zM982.4 233.6c-22.4 0-41.6-19.2-41.6-41.6v-118.4c0-28.8-22.4-51.2-51.2-51.2h-121.6c-22.4 0-41.6-19.2-41.6-41.6s19.2-41.6 41.6-41.6h118.4c73.6 0 137.6 60.8 137.6 137.6v115.2c0 22.4-19.2 41.6-41.6 41.6zM982.4 576c-22.4 0-41.6-19.2-41.6-41.6v-169.6c0-22.4 19.2-41.6 41.6-41.6s41.6 19.2 41.6 41.6v169.6c0 22.4-19.2 41.6-41.6 41.6zM886.4 960h-118.4c-22.4 0-41.6-19.2-41.6-41.6s19.2-41.6 41.6-41.6h118.4c28.8 0 51.2-22.4 51.2-51.2v-121.6c0-22.4 19.2-41.6 41.6-41.6 25.6 0 44.8 19.2 44.8 41.6v118.4c0 76.8-60.8 137.6-137.6 137.6z" />
<glyph unicode="&#xe915;" glyph-name="f023" horiz-adv-x="1025" d="M678.584 805.497l-26.206-61.739 172.038 54.579-80.247 161.663-27.298-64.307c-168.286 73.167-369.963 48.853-517.239-79.174l64.332-73.878c118.161 102.715 279.499 122.022 414.62 62.855zM345.442 90.503l26.206 61.737-172.038-54.575 80.245-161.665 27.298 64.307c168.284-73.169 369.961-48.853 517.241 79.172l-64.336 73.878c-118.157-102.713-279.495-122.020-414.616-62.853zM154.515 615.473l61.739-26.206-54.579 172.038-161.663-80.247 64.305-27.298c-73.165-168.284-48.853-369.961 79.174-517.241l73.878 64.334c-102.713 118.161-122.020 279.499-62.853 414.62zM959.705 244.042c73.167 168.286 48.853 369.963-79.172 517.241l-73.878-64.334c102.715-118.159 122.020-279.497 62.851-414.618l-61.737 26.206 54.577-172.038 161.663 80.249-64.305 27.294z" />
<glyph unicode="&#xe916;" glyph-name="f024" d="M394.723 521.513c-0.008-0.039-0.018-0.075-0.026-0.113 0.010-0.58 0.026-1.158 0.026-1.741v1.854zM898.726 742.84c-6.395 1.282-12.842 1.97-19.271 1.97h-186.079v49.719c0 45.38-36.792 82.185-82.218 82.185h-198.327c-45.412 0-82.207-36.806-82.207-82.185v-49.719h-186.282c-6.429 0-12.876-0.688-19.271-1.97-55.998-11.235-107.929-68.916-107.929-125.218v-75.647c2.648-13.372 11.106-17.175 31.231-17.175h137.443c23.949 0.006 29.49 2.583 29.49 25.752v5.77c0 23.108 18.509 42.010 41.146 42.010h69.033c22.63 0 41.146-18.904 41.146-42.010v-6.086c0-23.046 5.7-25.391 27.903-25.424v-4.121c0.057 0.234 0.113 0.467 0.165 0.707-0.018 1.142-0.070 2.277-0.117 3.413 0.151 0 0.294-0.001 0.446-0.001h238.479c20.957 0 23.045 2.891 23.045 22.22v9.297c0 23.106 18.509 42.020 41.145 42.020h68.137c22.63 0 41.146-18.908 41.146-42.020v-7.354c0-20.744 6.894-24.158 27.031-24.158h146.157c16.256 0 23.677 3.417 26.311 14.231v5.515c0.090-1.595 0.14-3.198 0.165-4.807 0.008 0.039 0.018 0.075 0.026 0.113v77.754c-0.001 56.302-51.941 113.983-107.94 125.218zM393.69 780.938c0 18.026 14.679 32.711 32.738 32.711h171.133c18.057 0 32.76-14.68 32.76-32.711v-36.128h-236.632v36.128zM982.323 437.695h-147.244c-22.141 0.006-28.12-3.811-28.12-22.591v-8.92c0-23.112-18.509-42.021-41.146-42.021h-68.134c-22.63 0-41.146 18.908-41.146 42.021v8.371c0 18.149-5.080 23.14-23.405 23.14h-237.030c-23.393 0-29.48-5.171-29.48-26.105v-5.413c0-23.112-18.514-42.020-41.143-42.020h-69.035c-22.636 0-41.146 18.908-41.146 42.020v3.363c0 24.579-6.023 28.154-28.396 28.154h-139.26c-19.702 0-27.896-3.901-30.494-17.847v-273.349c0-62.735 64.468-127.215 127.199-127.215h734.921c62.731 0 127.21 64.478 127.21 127.215v276.653c-2.766 10.678-10.546 14.542-24.15 14.542zM320.961 441.563v74.678c0 22.625-13.827 29.092-30.725 29.092-16.887 0-30.72-6.467-30.72-29.092v-74.678c0-22.625 13.833-29.092 30.72-29.092 16.903-0.001 30.725 6.467 30.725 29.092zM762.948 441.563v74.678c0 22.625-13.821 29.092-30.72 29.092-16.893 0-30.72-6.467-30.72-29.092v-74.678c0-22.625 13.827-29.092 30.72-29.092 16.905-0.001 30.72 6.467 30.72 29.092z" />
<glyph unicode="&#xe917;" glyph-name="f025" d="M436.359 614.358c57.71-175.257 218.612-175.018 276.237 0 18.926 9.993 38.443 39.629 41.716 64.098 3.386 25.598 1.355 59.637-24.47 59.637-5.654 82.247-50.864 151.749-153.209 151.749-100.213 0-151.208-60.283-157.543-151.749-25.799 0-27.825-34.039-24.47-59.637 3.278-24.47 22.793-54.106 41.74-64.098zM775.753 472.182l-65.321 13.596-135.966-271.050-135.967 271.049-65.321-13.596c-27.986-5.851-52.999-17.8-74.818-33.458 0.274-0.139 0.517-0.34 0.786-0.492 116.802-17.244 206.483-117.588 206.483-239.148 0-65.238-25.933-124.332-67.891-167.876h491.168v258.952c0.001 87.608-63.797 163.37-153.153 182.024zM285.317 389.668c-9.262 1.401-18.68 2.324-28.37 2.324-106.544 0-192.894-86.369-192.894-192.91 0-106.55 86.351-192.925 192.894-192.925 54.571 0 103.726 22.741 138.835 59.14 33.431 34.69 54.083 81.789 54.083 133.785 0 96.879-71.458 176.837-164.548 190.586zM269.884 111.214v-29.286h-28.152v27.283c-19.244 0.845-37.92 6.022-48.833 12.342l8.635 33.603c12.075-6.605 28.992-12.642 47.674-12.642 16.374 0 27.553 6.312 27.553 17.816 0 10.908-9.177 17.784-30.425 24.989-30.725 10.323-51.704 24.681-51.704 52.534 0 25.266 17.815 45.084 48.536 51.119v27.275h28.126v-25.275c19.246-0.864 32.184-4.881 41.661-9.468l-8.337-32.458c-7.445 3.17-20.654 9.776-41.364 9.776-18.65 0-24.685-8.042-24.685-16.097 0-9.478 10.043-15.498 34.459-24.689 34.161-12.056 47.965-27.853 47.965-53.69-0.001-25.559-18.107-47.384-51.108-53.134z" />
<glyph unicode="&#xe918;" glyph-name="f026" d="M658.157 573.462c-10.925-5.037-21.923-15.254-32.921-15.254-10.925-5.037-16.46-5.037-27.387-5.037s-16.46 0-27.387 5.037c-32.921 10.217-54.88 40.725-54.88 71.234 0 20.363 10.961 40.654 21.96 55.908 5.461 5.109 16.46 10.217 27.387 15.254-16.46 5.109-32.887 5.109-49.347 5.109-43.848 0-87.73-15.254-115.153-45.763-32.885-30.508-49.346-66.127-49.346-106.78 0-66.127 43.882-122.105 115.153-142.397 16.46-10.218 32.885-10.218 49.346-10.218s32.887 0 54.88 10.218c21.854 5.038 43.849 20.293 60.31 35.547 32.921 30.508 49.31 66.127 49.31 106.852 0 15.254-5.462 30.508-5.462 45.762-5.536-10.219-10.928-15.255-16.463-25.472zM845.183 44.028h-56.266l-97.837 137.858c49.311 20.363 93.228 50.872 131.542 81.379 76.767 76.271 126.15 178.016 126.15 289.905s-49.381 213.561-126.15 284.795c-76.768 76.273-186.387 122.034-307.039 122.034-120.615 0-230.305-45.763-312.536-122.033-76.768-71.234-126.113-172.908-126.113-284.795 0-167.869 104.19-310.265 263.19-371.283l-97.837-137.858h-56.126c-30.19 0-54.632-22.635-54.632-50.587 0-27.956 24.442-50.589 54.632-50.589h659.024c30.225 0 54.632 22.633 54.632 50.589-0.001 27.953-24.407 50.585-54.632 50.585zM515.583 298.884c-32.885 0-60.308 5.038-87.73 15.254h-5.498c-109.654 35.547-180.925 132.18-180.925 239.032 0 66.055 27.423 132.179 82.232 177.944 49.381 50.871 120.651 76.344 191.921 76.344 71.341 0 142.575-25.473 191.957-76.344 54.775-45.764 82.232-111.888 82.232-177.944 0-66.127-27.458-132.252-82.232-178.014-27.457-30.51-60.308-50.872-104.226-61.018-27.458-10.217-60.31-15.254-87.731-15.254z" />
<glyph unicode="&#xe919;" glyph-name="f027" horiz-adv-x="1025" d="M778.479-42.496c-12.288 0-24.576 3.072-37.888 10.24l-206.848 108.544c-5.12 3.072-12.288 5.12-20.48 5.12-7.168 0-15.36-2.048-20.48-4.096l-205.824-109.568c-12.288-7.168-24.576-10.24-38.912-10.24-24.576 0-48.128 11.264-64.512 29.696s-22.528 43.008-18.432 67.584l39.936 229.376c2.048 14.336-3.072 28.672-13.312 38.912l-165.888 160.768c-23.552 22.528-31.744 55.296-21.504 86.016s35.84 52.224 67.584 57.344l229.376 33.792c14.336 2.048 27.648 11.264 33.792 23.552l102.4 208.896c14.336 28.672 43.008 46.080 74.752 46.080s60.416-17.408 74.752-46.080l102.4-208.896c7.168-13.312 19.456-21.504 33.792-23.552l229.376-33.792c31.744-5.12 57.344-26.624 67.584-56.32 10.24-30.72 2.048-63.488-20.48-86.016l-164.864-161.792c-11.264-10.24-15.36-24.576-13.312-38.912l38.912-228.352c4.096-24.576-2.048-49.152-18.432-67.584-15.36-19.456-38.912-30.72-63.488-30.72zM765.167 19.968c5.12-2.048 9.216-3.072 12.288-3.072 7.168 0 14.336 3.072 19.456 9.216s6.144 14.336 5.12 19.456l-38.912 228.352c-6.144 32.768 5.12 68.608 29.696 91.136l164.864 162.816c6.144 6.144 8.192 15.36 6.144 25.6-3.072 9.216-10.24 15.36-20.48 16.384l-229.376 33.792c-33.792 5.12-63.488 25.6-77.824 56.32l-102.4 207.872c-4.096 9.216-12.288 13.312-21.504 13.312s-17.408-5.12-22.528-14.336l-102.4-206.848c-14.336-29.696-44.032-51.2-77.824-56.32l-229.376-33.792c-9.216-2.048-16.384-8.192-19.456-16.384v-1.024c-3.072-9.216-1.024-17.408 6.144-24.576l165.888-162.816c24.576-23.552 34.816-57.344 29.696-91.136l-38.912-228.352c-1.024-5.12-1.024-12.288 5.12-18.432 5.12-6.144 12.288-9.216 19.456-9.216 5.12 0 8.192 1.024 11.264 2.048l206.848 108.544c13.312 8.192 29.696 12.288 47.104 12.288 15.36 0 31.744-4.096 47.104-12.288l204.8-108.544z" />
<glyph unicode="&#xe91a;" glyph-name="f028" d="M622.651 703.017h106.609c27.462 0 33.923 16.59 14.537 37.051l-135.143 143.767c-19.385 19.908-34.46 13.273-34.998-15.483v-113.356c-0.54-28.201 21.535-51.427 48.995-51.979zM755.106 667.076h-150.76c-33.923 0.553-60.842 29.306-60.304 64.144v164.78h-305.83c-47.92 0-86.686-41.471-86.686-92.343v-669.637c-0.538-39.259 29.612-71.33 67.843-72.437h233.138l302.598 321.269v284.224zM302.287 574.731h302.058c17.228-0.553 30.69-15.483 30.15-33.178-0.538-16.588-13.46-29.858-30.15-30.963h-302.058c-16.693 0.552-30.152 14.928-30.152 32.071 0 17.139 13.46 31.517 30.152 32.070zM604.345 382.3h-302.058c-16.693 0.552-30.152 14.933-30.152 32.071 0 17.143 13.46 31.521 30.152 32.073h302.058c17.228 0 31.227-14.378 31.227-32.073 0.001-17.693-13.999-32.071-31.227-32.071zM866.020 336.959l-30.69 32.623c-8.614 8.848-22.613 8.295-31.23-0.552l-34.998-37.049 61.919-66.357 34.998 37.051c8.615 9.953 8.615 24.883 0.001 34.284zM546.194 97.527c-3.768-2.213-6.461-6.083-7.536-10.508l-22.076-70.225c-3.771-12.718 2.69-19.908 14.537-15.485l66.225 23.226c4.308 1.108 7.539 4.425 9.691 8.293l207.835 221.738-60.304 64.144-208.372-221.183z" />
<glyph unicode="&#xe91b;" glyph-name="f029" d="M128 128h128c32 0 64 32 64 64v448c0 32-32 64-64 64h-128c-32 0-64-32-64-64v-448c0-32 32-64 64-64zM448 128h128c32 0 64 32 64 64v256c0 32-32 64-64 64h-128c-32 0-64-32-64-64v-256c0-32 32-64 64-64zM768 128h128c32 0 64 32 64 64v704c0 32-32 64-64 64h-128c-32 0-64-32-64-64v-704c0-32 32-64 64-64zM960 64h-896c-32 0-64-32-64-64s32-64 64-64h896c32 0 64 32 64 64s-32 64-64 64z" />
<glyph unicode="&#xe91c;" glyph-name="f030" d="M704 896h-128c-25.6 0-42.667-17.067-42.667-42.667v-810.667c0-25.6 17.067-42.667 42.667-42.667h128c25.6 0 42.667 17.067 42.667 42.667v810.667c0 25.6-17.067 42.667-42.667 42.667zM682.667 384h-85.333c-12.8 0-21.333 8.533-21.333 21.333s8.533 21.333 21.333 21.333h85.333c12.8 0 21.333-8.533 21.333-21.333s-8.533-21.333-21.333-21.333zM682.667 512h-85.333c-12.8 0-21.333 8.533-21.333 21.333s8.533 21.333 21.333 21.333h85.333c12.8 0 21.333-8.533 21.333-21.333s-8.533-21.333-21.333-21.333zM682.667 640h-85.333c-12.8 0-21.333 8.533-21.333 21.333s8.533 21.333 21.333 21.333h85.333c12.8 0 21.333-8.533 21.333-21.333s-8.533-21.333-21.333-21.333zM682.667 768h-85.333c-12.8 0-21.333 8.533-21.333 21.333s8.533 21.333 21.333 21.333h85.333c12.8 0 21.333-8.533 21.333-21.333s-8.533-21.333-21.333-21.333zM503.467 849.067l-123.733 42.667c-21.333 8.533-46.933 0-55.467-21.333l-298.667-763.733c-8.533-21.333 4.267-46.933 25.6-55.467l123.733-46.933c21.333-8.533 46.933 4.267 55.467 25.6l298.667 763.733c8.533 21.333 0 46.933-25.6 55.467zM324.267 384c-4.267-12.8-17.067-17.067-29.867-12.8l-81.067 29.867c-12.8 4.267-17.067 17.067-12.8 29.867s17.067 17.067 29.867 12.8l81.067-29.867c12.8-4.267 17.067-17.067 12.8-29.867zM371.2 503.467c-4.267-8.533-17.067-12.8-29.867-8.533l-81.067 29.867c-12.8 4.267-17.067 17.067-12.8 29.867s17.067 17.067 29.867 12.8l81.067-34.133c12.8-4.267 17.067-17.067 12.8-29.867zM418.133 627.2c-4.267-12.8-17.067-17.067-29.867-12.8l-81.067 29.867c-12.8 4.267-17.067 17.067-12.8 29.867 4.267 8.533 17.067 12.8 29.867 8.533l81.067-29.867c12.8-4.267 17.067-17.067 12.8-25.6zM465.067 746.667c-4.267-12.8-17.067-17.067-29.867-12.8l-81.067 29.867c-12.8 4.267-17.067 17.067-12.8 29.867s17.067 17.067 29.867 12.8l81.067-29.867c12.8-4.267 17.067-17.067 12.8-29.867zM960 896h-128c-25.6 0-42.667-17.067-42.667-42.667v-810.667c0-25.6 17.067-42.667 42.667-42.667h128c25.6 0 42.667 17.067 42.667 42.667v810.667c0 25.6-17.067 42.667-42.667 42.667zM938.667 384h-85.333c-12.8 0-21.333 8.533-21.333 21.333s8.533 21.333 21.333 21.333h85.333c12.8 0 21.333-8.533 21.333-21.333s-8.533-21.333-21.333-21.333zM938.667 512h-85.333c-12.8 0-21.333 8.533-21.333 21.333s8.533 21.333 21.333 21.333h85.333c12.8 0 21.333-8.533 21.333-21.333s-8.533-21.333-21.333-21.333zM938.667 640h-85.333c-12.8 0-21.333 8.533-21.333 21.333s8.533 21.333 21.333 21.333h85.333c12.8 0 21.333-8.533 21.333-21.333s-8.533-21.333-21.333-21.333zM938.667 768h-85.333c-12.8 0-21.333 8.533-21.333 21.333s8.533 21.333 21.333 21.333h85.333c12.8 0 21.333-8.533 21.333-21.333s-8.533-21.333-21.333-21.333z" />
<glyph unicode="&#xe91d;" glyph-name="f031" d="M516.104 650.335c-93.59-5.219-149.566-71.010-149.566-190.486 0-123.595 55.976-181.058 149.566-184.525 38.104 0 69.301 7.083 93.59 33.178l-38.997 36.531c-10.398 6.93-14.746 14.762-12.998 23.485 1.707 13.902 10.398 22.589 25.998 26.094 8.651 0 16.45-3.506 23.398-10.438l31.197-31.314c13.85 31.314 27.376 65.971 27.376 106.987 0.003 120.81-57.721 185.269-149.564 190.488zM929.048 650.556c-2.29 87.53-12.718 146.574-12.778 147.202-0.419 4.528-2.726 8.672-6.36 11.422-2.851 2.16-6.315 3.306-9.843 3.306-0.966 0-1.938-0.086-2.902-0.261-0.55-0.099-45.037-14.962-102.819-14.962-33.24 0-71.504 12.189-92.138 18.502-60.36 18.461-105.611 42.6-132.947 58.762-29.658 17.534-45.222 30.874-45.376 31.006-3.062 2.643-6.872 3.966-10.678 3.966-3.808 0-7.614-1.322-10.669-3.97-0.154-0.133-15.706-13.472-45.341-31.006-27.312-16.162-72.53-40.299-132.842-58.758-20.618-6.312-55.874-19.502-89.086-19.502-57.861 0-105.17 15.861-105.722 15.962-0.965 0.174-1.938 0.261-2.904 0.261-3.528 0-6.992-1.146-9.843-3.306-3.634-2.75-5.941-6.894-6.36-11.424-0.058-0.627-8.155-59.672-10.442-147.2-2.115-80.883-1.285-190.078 13.118-298.098 6.715-50.357 33.957-95.003 77.029-145.834 33.714-39.786 78.474-79.496 133.030-118.027 92.309-65.187 180.765-104.083 184.443-105.707 2.098-0.926 4.344-1.39 6.59-1.39 2.245 0 4.49 0.461 6.587 1.387 3.682 1.624 90.21 40.522 182.584 105.707 54.6 38.53 99.392 78.238 133.128 118.027 43.106 50.832 70.368 99.474 77.085 149.83 7.959 59.623 19.291 147.566 15.456 294.105zM716.283 217.172c-8.691 1.752-15.597 4.363-20.797 7.83l-46.795 44.357c-34.691-31.314-79.226-46.968-132.587-46.968-126.39 0-207.979 86.269-207.979 237.456 0 152.997 77.133 242.677 207.979 242.677 129.126 0 207.978-88.189 207.978-242.677 0-55.758-15.597-105.274-41.595-148.738l49.397-49.579c6.904-8.725 10.398-16.552 10.398-23.485-1.747-12.19-10.399-19.121-25.999-20.873z" />
<glyph unicode="&#xe91e;" glyph-name="f032" d="M573.536 848h-123.072c-50.242-0.965-90.601-41.921-90.601-92.304s40.359-91.339 90.511-92.303l0.090-0.001h123.072c50.242 0.965 90.601 41.921 90.601 92.304s-40.359 91.339-90.511 92.303l-0.090 0.001zM573.536 540.304h-123.072c-50.242-0.965-90.601-41.921-90.601-92.304s40.359-91.339 90.511-92.303l0.090-0.001h123.072c50.242 0.965 90.601 41.921 90.601 92.304s-40.359 91.339-90.511 92.303l-0.090 0.001zM573.536 232.608h-123.072c-50.242-0.965-90.601-41.921-90.601-92.304s40.359-91.339 90.511-92.303l0.090-0.001h123.072c50.242 0.965 90.601 41.921 90.601 92.304s-40.359 91.339-90.511 92.303l-0.090 0.001zM235.072 171.072c-0.091 0-0.198 0-0.306 0-33.895 0-64.577 13.76-86.764 35.998l-0.002 0.002c-22.241 22.194-36 52.88-36 86.78 0 0.108 0 0.217 0 0.325v-0.017c0 0.091 0 0.198 0 0.306 0 33.895 13.76 64.577 35.998 86.764l0.002 0.002c22.131 22.239 52.762 36.001 86.607 36.001 0.163 0 0.327 0 0.49-0.001h61.511v61.536h-61.536c-101.952 0-184.608-82.672-184.608-184.608 0-101.952 82.672-184.608 184.608-184.608v-61.552l92.304 92.304-92.304 92.304v-61.536zM788.928 786.464h-61.536v-61.536h61.536c0.091 0 0.198 0 0.306 0 33.895 0 64.577-13.76 86.764-35.998l0.002-0.002c23.28-23.28 36-54.16 36-87.072s-12.816-63.792-36-87.072c-22.192-22.241-52.875-36-86.773-36-0.105 0-0.21 0-0.315 0h0.016v61.536l-92.32-92.32 92.304-92.304v61.536c101.952 0 184.608 82.672 184.608 184.608 0.016 101.952-82.656 184.624-184.592 184.624z" />
<glyph unicode="&#xe91f;" glyph-name="f033" d="M640 448c0-40.8-19.2-76.8-48.8-100l-43.2 43.2-45.6-45.6 24.8-24.8c-4.8-0.8-10.4-0.8-15.2-0.8-70.4 0-128 57.6-128 128s57.6 128 128 128 128-57.6 128-128zM866.4 731.2v-244.8c0-226.4-151.2-437.6-353.6-489.6-203.2 51.2-354.4 263.2-354.4 489.6v244.8l354.4 163.2 353.6-163.2zM636.8 302.4c40.8 35.2 67.2 87.2 67.2 145.6 0 106.4-85.6 192-192 192s-192-86.4-192-192 85.6-192 192-192c24 0 46.4 4.8 68 12l58.4-58.4 45.6 45.6-47.2 47.2z" />
<glyph unicode="&#xe920;" glyph-name="f034" d="M98.112 519.664h0.448l237.696 2.4c25.584 0.272 46.128 21.2 45.856 46.768-0.272 25.552-19.36 45.568-46.768 45.84l-123.808-1.248c63.856 109.712 180.448 177.792 307.872 177.792 196.544 0 356.48-159.936 356.48-356.512 0-25.584 20.736-46.32 46.32-46.32 25.616 0 46.336 20.736 46.336 46.32 0 247.648-201.472 449.136-449.12 449.136-153.12 0-293.664-78.272-376.080-205.408l-1.264 125.648c-0.272 25.424-20.992 45.872-46.32 45.872h-0.432c-25.616-0.256-46.144-21.2-45.872-46.768l2.336-237.68c0.256-25.072 21.2-45.84 46.32-45.84zM971.152 303.888c-0.256 27.024-21.632 43.248-46.752 45.856l-237.744-2.4c-25.6-0.288-46.112-21.232-45.84-46.8 0.288-25.424 20.976-45.84 46.288-45.84h0.464l123.824 1.264c-63.856-109.712-180.448-177.776-307.888-177.776-196.544 0-356.544 159.92-356.544 356.512 0 25.568-20.688 46.304-46.304 46.304-25.6 0-46.304-20.736-46.304-46.304 0-247.648 201.52-449.136 449.152-449.136 153.12 0 293.664 78.272 376.112 205.408l1.296-125.664c0.256-25.408 20.896-45.856 46.32-45.856h0.432c25.6 0.256 46.144 21.2 45.84 46.784l-2.352 237.648z" />
<glyph unicode="&#xe921;" glyph-name="f035" d="M63.989 854.558v-268.397c0-18.935 15.368-34.304 34.304-34.304s34.304 15.369 34.304 34.304v193.683l218.107-218.176c12.829-12.83 33.619-12.83 46.515 0 12.83 12.898 12.83 33.686 0 46.516l-218.176 218.107h193.683c18.935 0 34.304 15.369 34.304 34.304s-15.369 34.304-34.304 34.304h-268.397c-25.042 0-40.342-12.9-40.342-40.343v0zM917.689 894.9h-268.398c-18.935 0-34.304-15.369-34.304-34.304 0-18.936 15.369-34.304 34.304-34.304h193.683l-218.176-218.107c-12.83-12.829-12.83-33.619 0-46.516 12.898-12.83 33.686-12.83 46.515 0l218.107 218.176v-193.683c0-18.935 15.369-34.304 34.304-34.304 18.936 0 34.304 15.369 34.304 34.304v268.397c0 27.443-15.23 40.343-40.341 40.343v0zM104.331 2.987h268.398c18.935 0 34.304 15.368 34.304 34.304s-15.369 34.304-34.304 34.304h-193.683l218.176 218.107c12.83 12.829 12.83 33.619 0 46.515-12.898 12.83-33.686 12.83-46.515 0l-218.107-218.176v193.683c0 18.935-15.368 34.304-34.304 34.304s-34.304-15.369-34.304-34.304v-268.398c-0.001-27.443 15.298-40.341 40.341-40.341v0zM958.029 43.328v268.397c0 18.935-15.368 34.304-34.304 34.304s-34.304-15.369-34.304-34.304v-193.683l-218.107 218.176c-12.829 12.83-33.619 12.83-46.515 0-12.83-12.898-12.83-33.686 0-46.515l218.176-218.107h-193.683c-18.935 0-34.304-15.368-34.304-34.304s15.369-34.304 34.304-34.304h268.398c25.111 0 40.341 12.898 40.341 40.342v0z" />
<glyph unicode="&#xe922;" glyph-name="f036" d="M720.429 619.826h265.772c20.421 0 36.976 16.555 36.976 36.976s-16.555 36.976-36.976 36.976v0h-177.257l198.532 202.856c6.838 6.715 11.075 16.057 11.075 26.389 0 20.421-16.555 36.976-36.976 36.976-10.615 0-20.185-4.473-26.929-11.637l-0.018-0.019-197.222-201.548v175.949c0 20.421-16.555 36.976-36.976 36.976s-36.976-16.555-36.976-36.976v0-265.942c0-20.422 16.554-36.976 36.976-36.976zM1023.178 239.657c0 20.421-16.555 36.976-36.976 36.976v0h-265.772c-20.421 0-36.976-16.555-36.976-36.976v0-265.942c0-20.421 16.555-36.976 36.976-36.976s36.976 16.555 36.976 36.976v0 175.949l197.223-201.548c6.707-6.903 16.078-11.187 26.45-11.187 10.090 0 19.233 4.054 25.89 10.622l-0.004-0.004c6.859 6.718 11.111 16.075 11.111 26.424 0 10.066-4.022 19.193-10.548 25.861l0.006-0.007-198.533 202.856h177.257c20.396 0.033 36.918 16.575 36.918 36.976 0 0 0 0 0 0v0zM303.57 276.576h-265.771c-0.057 0-0.125 0-0.192 0-20.421 0-36.976-16.555-36.976-36.976s16.555-36.976 36.976-36.976c0.068 0 0.135 0 0.203 0.001h177.247l-198.532-202.856c-6.516-6.662-10.537-15.789-10.537-25.855 0-20.428 16.56-36.989 36.989-36.989 10.363 0 19.73 4.261 26.445 11.127l0.007 0.007 197.224 201.548v-175.949c0-20.421 16.555-36.976 36.976-36.976s36.976 16.555 36.976 36.976v0 265.942c-0.032 20.428-16.6 36.976-37.033 36.976 0 0 0 0 0 0v0zM303.57 959.721c-20.421 0-36.976-16.555-36.976-36.976v0-175.949l-197.223 201.548c-6.761 7.183-16.332 11.656-26.947 11.656-20.421 0-36.976-16.555-36.976-36.976 0-10.332 4.238-19.674 11.070-26.384l0.006-0.005 198.532-202.856h-177.257c-20.421 0-36.976-16.555-36.976-36.976s16.555-36.976 36.976-36.976v0h265.772c20.421 0 36.976 16.555 36.976 36.976v0 265.942c-0.001 20.421-16.555 36.975-36.976 36.975 0 0-0.001 0-0.001 0v0z" />
<glyph unicode="&#xe923;" glyph-name="f037" d="M677.547 811.227v-0.122c-4.706 1.682-9.801 2.56-15.067 2.56-24.917 0-45.154-20.431-45.154-45.714 0-19.87 12.605-36.791 30.062-43.081v-0.049c123.806-53.394 210.651-177.713 210.651-322.56 0-193.56-154.917-350.476-346.039-350.476s-346.039 156.94-346.039 350.501c0 144.847 86.845 269.166 210.651 322.56v0.049c17.481 6.29 30.086 23.186 30.086 43.081 0 25.283-20.236 45.714-45.154 45.714-5.266 0-10.362-0.878-15.067-2.56v0.098c-158.915-66.048-270.824-224.256-270.824-408.942 0-244.053 195.34-441.905 436.346-441.905s436.346 197.851 436.346 441.905c0 184.686-111.909 342.894-270.799 408.942zM512 432.738c24.917 0 45.154 20.529 45.154 45.714v411.453c-0.049 25.259-20.236 45.714-45.154 45.714s-45.105-20.456-45.105-45.714v-411.429c0-25.21 20.187-45.739 45.105-45.739z" />
<glyph unicode="&#xe924;" glyph-name="f038" d="M961.456 890.416h-884.768c-14.368 0-26.016-11.696-26.016-26.016v-95.968c0-14.384 11.664-26.016 26.016-26.016h884.768c14.336 0 26.016 11.648 26.016 26.016v95.952c0 14.336-11.696 26.032-26.016 26.032zM961.456 521.216h-884.768c-14.368 0-26.016-11.632-26.016-26.016v-94.32c0-14.384 11.664-26.016 26.016-26.016h884.768c14.336 0 26.016 11.632 26.016 26.016v94.32c0 14.384-11.696 26.016-26.016 26.016zM961.456 153.648h-884.768c-14.368 0-26.016-11.632-26.016-26v-95.952c0-14.4 11.664-26.064 26.016-26.064h884.768c14.336 0 26.016 11.664 26.016 26.064v95.952c0 14.368-11.696 26-26.016 26z" />
<glyph unicode="&#xe925;" glyph-name="f039" d="M890.335 629.089c-12.576 12.416-32.801 12.353-45.248-0.193l-327.839-330.848-332.416 329.439c-12.576 12.447-32.801 12.353-45.281-0.193-12.447-12.576-12.353-32.832 0.193-45.281l353.312-350.112c0.544-0.544 1.247-0.673 1.792-1.183 0.127-0.127 0.16-0.287 0.287-0.416 6.239-6.176 14.4-9.28 22.528-9.28 8.224 0 16.48 3.169 22.72 9.471l350.112 353.312c12.48 12.58 12.385 32.835-0.16 45.284z" />
<glyph unicode="&#xe926;" glyph-name="f040" d="M887.328 342.848l-353.377 350.145c-0.513 0.513-1.216 0.673-1.76 1.153-0.127 0.127-0.16 0.32-0.287 0.447-12.576 12.416-32.832 12.353-45.281-0.193l-350.112-353.344c-12.447-12.576-12.353-32.801 0.193-45.248 6.239-6.176 14.4-9.28 22.528-9.28 8.224 0 16.48 3.169 22.72 9.471l327.841 330.817 332.48-329.408c6.239-6.176 14.369-9.28 22.528-9.28 8.255 0 16.48 3.169 22.72 9.471 12.447 12.545 12.351 32.802-0.193 45.25z" />
<glyph unicode="&#xe927;" glyph-name="f041" d="M761.056 427.872c0.513 0.993 1.343 1.823 1.792 2.849 8.801 18.305 5.919 40.703-9.664 55.425l-353.248 334.111c-19.265 18.208-49.631 17.345-67.872-1.889-18.208-19.265-17.376-49.631 1.889-67.872l316.96-299.839-315.713-304.288c-19.072-18.399-19.648-48.768-1.247-67.872 9.408-9.791 21.984-14.689 34.561-14.689 12 0 24 4.479 33.312 13.44l350.048 337.376c0.673 0.673 0.927 1.6 1.6 2.303 0.513 0.48 1.056 0.833 1.567 1.343 2.72 2.85 4.159 6.339 6.016 9.602z" />
<glyph unicode="&#xe928;" glyph-name="f042" d="M671.968 48c-12.287 0-24.576 4.672-33.952 14.047l-351.968 351.968c-18.752 18.719-18.752 49.12 0 67.872l351.968 352.001c18.752 18.752 49.12 18.752 67.872 0 18.752-18.719 18.752-49.12 0-67.872l-318.017-318.048 318.017-318.017c18.752-18.752 18.752-49.12 0-67.872-9.344-9.408-21.633-14.080-33.921-14.080z" />
<glyph unicode="&#xe929;" glyph-name="f043" d="M302.974 64.005l420.571 386.971-422.746 381.020z" />
<glyph unicode="&#xe92a;" glyph-name="f044" d="M721.026 831.995l-420.571-386.971 422.746-381.020z" />
<glyph unicode="&#xe92b;" glyph-name="f045" d="M128.005 657.026l386.971-420.571 381.019 422.746z" />
<glyph unicode="&#xe92c;" glyph-name="f046" d="M64.005-64l447.728 448.278 447.713-448.278z" />
<glyph unicode="&#xe92d;" glyph-name="f047" d="M512 960c-282.752 0-512-229.248-512-512 0-282.784 229.248-512 512-512 282.784 0 512 229.216 512 512 0 282.752-229.216 512-512 512zM460.816 742.4c0 28.256 22.944 51.184 51.184 51.184 28.288 0 51.216-22.944 51.216-51.184v-409.632c0-28.256-22.944-51.184-51.216-51.184-28.256 0-51.184 22.944-51.184 51.184v409.632zM512 86.4c-35.344 0-64 28.624-64 64 0 35.344 28.656 64 64 64 35.376 0 64-28.656 64-64 0-35.376-28.624-64-64-64z" />
<glyph unicode="&#xe92e;" glyph-name="f048" d="M250.488 178.469l201.182 85.651-123.498 121.506zM848.058 652.54l-127.481 131.465-369.497-364.517 132.461-137.441zM953.082 809.792c0 0-33.745 37.347-72.585 65.729s-68.717 0-68.717 0l-65.729-65.729 133.45-132.953c0 0 56.269 56.767 73.581 76.186s0 56.767 0 56.767zM810.959 109.629c0-9.216-7.471-16.687-16.687-16.687h-622.191c-9.216 0-16.687 7.471-16.687 16.687v617.268c0 9.216 7.471 16.687 16.687 16.687h395.56l82.39 87.664h-562.675c-11.12 0-20.135-9.014-20.135-20.135v-785.701c0-11.12 9.014-20.135 20.135-20.135h791.641c11.12 0 20.135 9.014 20.135 20.135v561.173l-88.171-81.839v-395.117z" />
<glyph unicode="&#xe92f;" glyph-name="f049" d="M511.986 960c-282.746 0-511.986-229.239-511.986-511.986 0-282.775 229.239-511.986 511.986-511.986 282.775 0 511.986 229.239 511.986 511.986 0.028 282.746-229.211 511.986-511.986 511.986zM820.206 416.2h-251.586v-285.703c0-23.541-19.077-42.647-42.647-42.647s-42.647 19.106-42.647 42.647v285.703h-288.603c-23.569 0-42.647 19.077-42.647 42.647s19.077 42.647 42.647 42.647h288.603v254.514c0 23.569 19.077 42.647 42.647 42.647s42.647-19.077 42.647-42.647v-254.486h251.586c23.541 0 42.647-19.077 42.647-42.647s-19.106-42.675-42.647-42.675z" />
<glyph unicode="&#xe930;" glyph-name="f050" d="M911.244 507.682h-348.060v348.043c0 27.466-22.255 49.72-49.721 49.72s-49.719-22.255-49.719-49.72v-348.044h-348.027c-27.466 0-49.72-22.255-49.72-49.721s22.255-49.72 49.72-49.72h348.028v-348.010c0-27.468 22.254-49.722 49.719-49.722 27.467 0 49.721 22.255 49.721 49.722v348.010h348.060c27.467 0 49.72 22.255 49.72 49.72-0.001 27.468-22.255 49.722-49.721 49.722z" />
<glyph unicode="&#xe931;" glyph-name="f051" d="M166.548 384.196c-33.887 0-61.368 27.48-61.368 61.368 0 33.887 27.481 61.367 61.368 61.367h280.563v280.564c0 33.889 27.496 61.368 61.384 61.368 33.87 0 61.369-27.48 61.369-61.368v-280.563h280.562c33.887 0 61.368-27.48 61.368-61.367 0-33.889-27.48-61.368-61.368-61.368h-280.562v-280.562c0-33.905-27.498-61.384-61.369-61.384-33.888 0-61.384 27.48-61.384 61.384v280.561h-280.563z" />
<glyph unicode="&#xe932;" glyph-name="f052" d="M747.674 490.752h-200.96v220.723c0 14.387-11.162 24.422-36.045 25.907-24.781 1.382-35.994-11.469-35.994-25.907v-220.723h-212.275s-40.090 3.686-40.090-28.928c0-43.776 17.203-43.725 31.59-43.725h220.774l-0.102-231.424c0-18.125-3.738-42.086 33.741-42.086 39.475 0 37.581 36.301 37.581 44.8l0.922 228.71h200.96c9.165 0 44.749-2.509 45.261 37.99 0.358 40.602-45.363 34.662-45.363 34.662zM512 960c-282.726 0-512-229.171-512-512 0-282.778 229.274-512 512-512 282.778 0 512 229.222 512 512 0 282.829-229.222 512-512 512zM512 4.301c-245.061 0.058-443.699 198.733-443.699 443.802 0 245.105 198.697 443.802 443.802 443.802 0.036 0 0.072 0 0.108 0h-0.005c245.061-0.058 443.699-198.733 443.699-443.802 0-245.105-198.697-443.802-443.802-443.802-0.036 0-0.072 0-0.108 0h0.005z" />
<glyph unicode="&#xe933;" glyph-name="f053" d="M217.328 742.656v-597.328h248.896v597.328h-248.896zM68-4h896v896h-896v-896zM914.224 842.224v-796.432h-796.448v796.432h796.448zM565.776 742.656v-597.328h248.88v597.328h-248.88z" />
<glyph unicode="&#xe934;" glyph-name="f054" d="M801.010 543.060c51.912-30.945 115.608-114.424 142.11-214.916 26.502-100.49 22.108-190.477 22.108-190.477s-34.309 55.416-48.22 74.842-72.529 91.802-163.516 133.751-243.072 34.478-243.072 34.478v-174.679l-419.146 296.896 419.146 296.895v-176.286c0 0 100.689-7.578 153.319-18.477 88.648-18.358 137.272-62.027 137.272-62.027z" />
<glyph unicode="&#xe935;" glyph-name="f055" d="M622.651 675.098h-174.906v142.078l-383.764-191.881 383.763-191.882v141.752h189.391c149.914 0 224.855-62.789 224.855-188.368 0-129.928-77.436-194.876-232.339-194.876h-441.7v-99.932h446.194c211.185 0 316.778 95.104 316.778 285.311 0 198.521-109.414 297.798-328.274 297.798z" />
<glyph unicode="&#xe936;" glyph-name="f056" d="M734.569 584.703c1.445 1.338 2 3.474 1.237 5.417-0.761 1.948-2.622 3.134-4.593 3.134h-137.402l0.296 224.814c0.005 3.792-1.435 7.587-4.329 10.481-2.89 2.895-6.683 4.345-10.477 4.345h-134.578c-3.788 0-7.582-1.45-10.477-4.345-2.889-2.894-4.33-6.688-4.326-10.481l0.274-224.814h-137.409c-1.967 0-3.826-1.185-4.594-3.134-0.762-1.943-0.207-4.079 1.239-5.417l212.499-197.053c2.645-2.448 6.181-3.95 10.067-3.95 3.889 0 7.427 1.503 10.068 3.95l212.505 197.053zM946.222 334.539l-133.221 102.925c-7.547 5.888-21.555 10.706-31.126 10.706h-77.132l127.577-127.75-128.003 0.087-64.342-92.867h-256.517l-63.663 92.867-126.724-0.256 127.577 127.919h-78.572c-9.572 0-23.58-4.818-31.127-10.706l-133.222-102.925c-7.547-5.889-11.289-18.151-8.315-27.251l53.146-162.622c2.974-9.099 13.239-16.544 22.811-16.544h734.235c9.572 0 19.802 7.456 22.734 16.568l52.279 162.572c2.929 9.114-0.848 21.387-8.396 27.276z" />
<glyph unicode="&#xe937;" glyph-name="f057" d="M289.43 631.891c-1.445-1.338-2-3.474-1.237-5.417 0.761-1.948 2.622-3.134 4.593-3.134h137.402l-0.296-224.814c-0.005-3.791 1.435-7.586 4.329-10.48 2.89-2.895 6.683-4.345 10.477-4.345h134.578c3.788 0 7.582 1.45 10.476 4.345 2.889 2.894 4.33 6.688 4.326 10.48l-0.274 224.814h137.408c1.968 0 3.826 1.185 4.594 3.134 0.762 1.943 0.207 4.079-1.239 5.417l-212.498 197.053c-2.645 2.448-6.181 3.95-10.067 3.95-3.889 0-7.427-1.503-10.068-3.95l-212.504-197.053zM945.113 334.283l-133.221 102.925c-7.547 5.888-21.555 10.706-31.126 10.706h-77.132l128.393-127.935h-128.014l-65.146-92.595h-256.517l-62.364 92.611h-128.025l127.577 127.918h-78.572c-9.572 0-23.58-4.818-31.127-10.706l-133.221-102.925c-7.547-5.889-11.289-18.151-8.315-27.251l53.146-162.622c2.974-9.099 13.239-16.544 22.811-16.544h734.235c9.572 0 19.802 7.456 22.734 16.568l52.279 162.572c2.929 9.114-0.848 21.387-8.396 27.276z" />
<glyph unicode="&#xe938;" glyph-name="f058" d="M865.333 601.737h-143.676v-89.186h143.676v89.186zM865.333 488.194h-143.676v-89.24h143.676v89.24zM865.333 715.227h-143.676v-89.186h143.676v89.186zM865.333 265.231h-143.676v-89.244h143.676v89.244zM931.371 804.413h-345.583c-4.123 0-8.056-0.846-11.656-2.369v96.393l-512.571-102.108v-696.604l512.572-102.163v91.56c3.6-1.527 7.534-2.376 11.656-2.376h345.583c17.155 0 31.066 14.571 31.066 32.441v652.784c0 17.924-13.912 32.441-31.067 32.441v0zM407.143 297.614l-62.134 4.071-46.572 117.613-50.476-109.53-58.285 4.068 73.791 133.833-65.982 145.93 58.229 4.072 38.82-109.475h7.752l42.723 117.612 62.134 4.013-77.637-154.068 77.637-158.138zM923.618 127.324h-349.485v48.663h116.459v89.243h-116.459v20.233h116.459v89.187h-116.459v24.304h116.459v89.24h-116.459v24.357h116.459v89.186h-116.459v24.302h116.459v89.186h-116.459v48.661h349.486v-636.565h-0.001v0.002zM865.333 374.65h-143.676v-89.187h143.676v89.187z" />
<glyph unicode="&#xe939;" glyph-name="f059" d="M555.249 632.567h-451.369v-451.312h451.369v451.312zM390.97 278.286l-61.377 91.784-27.643-41.35h27.643v-50.435h-138.78l100.757 148.428-89.249 133.586h74.524l52.804-77.684 52.748 77.684h74.467l-89.359-133.533 100.809-148.479h-77.344zM858.98 870.577h-553.42c-33.112 0-60.139-27.079-60.139-60.138v-121.4h344.712v-564.141h-344.765v-40.336c0-33.116 27.021-60.138 60.135-60.138h553.477c33.117 0 60.139 27.021 60.139 60.138v725.876c0.058 33.113-27.026 60.139-60.139 60.139zM846.925 265.023h-197.449v56.414h197.449v-56.414zM846.925 377.852h-197.449v56.414h197.449v-56.414zM846.925 490.68h-197.449v56.414h197.449v-56.414z" />
<glyph unicode="&#xe93a;" glyph-name="f060" horiz-adv-x="1181" d="M1142.154 960h-1102.769c-31.39 0-39.385-8.271-39.385-39.385v-945.231c0-31.114 7.995-39.385 39.385-39.385h1102.769c31.39 0 39.385 8.271 39.385 39.385v945.231c0 31.114-7.995 39.385-39.385 39.385zM354.462 14.769l-276.992-3.269v198.932l276.992 1.26v-196.923zM354.462 290.462h-275.692v196.923h275.692v-196.923zM354.462 566.154h-275.692v157.538h275.692v-157.538zM748.308 14.769h-315.077v196.923h315.077v-196.923zM748.308 290.462h-315.077v196.923h315.077v-196.923zM748.308 566.154h-315.077v157.538h315.077v-157.538zM1102.769 14.769h-275.692v196.923h275.692v-196.923zM1102.769 290.462h-275.692v196.923h275.692v-196.923zM1102.769 566.154h-275.692v157.538h275.692v-157.538z" />
<glyph unicode="&#xe93b;" glyph-name="f061" d="M924.446 41.075l-33.291-33.401c-13.097-13.206-34.392-13.206-47.542 0l-134.209 134.703c-32.3-18.928-69.883-29.824-110.053-29.824-118.58 0-221.148 101.468-224.56 219.994h-169.699v56.347h175.367c4.732 20.14 12.545 38.849 22.341 56.347h-197.708v56.347h241.729c-0.44-0.44-0.661-1.101-1.046-1.541 38.849 35.657 90.076 57.887 146.863 57.887 120.726 0 225.277-104.934 225.277-226.046 0-41.711-11.556-80.669-31.695-113.905l133.493-133.932c13.152-13.207 17.884-29.823 4.734-42.975zM592.638 490.471c-83.529 0-151.266-68.012-151.266-151.871 0-83.861 74.451-158.586 157.98-158.586 83.586 0 151.322 68.013 151.322 151.873 0 83.861-74.451 158.585-158.035 158.585zM205.091 726.973h394.426v-56.347h-394.426v56.347zM599.516 601.184c-33.566-9.575-65.041-23.662-92.884-43.251h-301.541v56.347h394.426v-13.096zM655.864 611.474v171.846h-507.121v-563.466h238.538c11.941-41.984 32.3-80.007 59.538-112.692h-298.076c-31.145 0-56.347 25.256-56.347 56.345v676.16c0 31.145 25.202 56.347 56.347 56.347h507.12c31.089 0 56.346-25.202 56.346-56.347v-228.192c-9.409 0.825-18.544 2.806-28.174 2.806-9.683 0-18.762-1.981-28.17-2.806z" />
<glyph unicode="&#xe93c;" glyph-name="f062" d="M926.8 447.995c0-228.853-185.514-414.367-414.368-414.367-228.852 0-414.367 185.514-414.367 414.367 0 228.861 185.515 414.377 414.367 414.377 228.854 0 414.368-185.515 414.368-414.377zM885.363 447.995c0 205.654-167.932 372.94-373.356 372.94-205.404 0-372.505-167.287-372.505-372.94 0-205.625 167.102-372.932 372.505-372.932 205.425 0.001 373.356 167.306 373.356 372.932zM692.95 508.857c3.965-4.068 5.947-9.389 5.947-14.71 0-5.322-1.983-10.642-5.947-14.71-7.931-8.113-20.779-8.113-28.711 0l-131.088 121.947v-339.855c0-11.432-9.267-20.718-20.719-20.718-11.432 0-20.718 9.285-20.718 20.718v338.662l-129.106-123.364c-7.932-8.114-20.778-8.114-28.71 0-7.932 8.133-7.932 21.304 0 29.419l178.898 169.66 180.153-167.050z" />
<glyph unicode="&#xe93d;" glyph-name="f063" d="M98.064 448c0 228.848 185.52 414.368 414.368 414.368s414.368-185.504 414.368-414.368c0-228.864-185.52-414.384-414.368-414.384s-414.368 185.52-414.368 414.384zM139.504 448c0-205.664 167.92-372.944 373.344-372.944 205.408 0 372.512 167.28 372.512 372.944 0 205.616-167.088 372.928-372.512 372.928-205.424 0.016-373.344-167.296-373.344-372.928zM331.904 387.136c-3.952 4.064-5.952 9.392-5.952 14.704 0 5.328 2 10.64 5.952 14.72 7.936 8.112 20.784 8.112 28.704 0l131.088-121.952v339.856c0 11.44 9.28 20.72 20.72 20.72 11.424 0 20.72-9.28 20.72-20.72v-338.656l129.088 123.36c7.936 8.112 20.784 8.112 28.72 0 7.92-8.144 7.92-21.312 0-29.424l-178.88-169.648-180.16 167.040z" />
<glyph unicode="&#xe93e;" glyph-name="f064" d="M488.909 898c-247.5 0-448.242-200.7-448.242-448.242 0-247.556 200.714-448.242 448.242-448.242 247.556 0 448.242 200.644 448.242 448.242 0 247.5-200.686 448.242-448.242 448.242zM672.678 325.361c7.636-7.594 12.333-18.070 12.333-29.686 0-23.231-18.787-42.019-42.019-42.019-11.531 0-22.092 4.697-29.686 12.333l-124.397 124.327-124.313-124.369c-7.65-7.636-18.155-12.333-29.77-12.333-23.161 0-41.991 18.787-41.991 42.033 0 11.616 4.697 22.064 12.291 29.658l124.383 124.453-124.355 124.355c-7.608 7.622-12.291 18.127-12.291 29.728 0 23.203 18.816 42.019 42.019 42.019 11.573 0 22.078-4.683 29.7-12.291l124.312-124.383 124.397 124.355c7.594 7.594 18.155 12.291 29.686 12.291 23.189 0 42.019-18.787 42.019-42.019 0-11.616-4.697-22.12-12.333-29.728l-124.312-124.313 124.327-124.411z" />
<glyph unicode="&#xe93f;" glyph-name="f065" d="M424.624 50.768c-12.544-14.224-34.24-15.648-48.48-3.072-1.024 0.912-2 1.84-2.912 2.896l-314.16 341.552c-28.4 31.856-28.4 79.968 0 111.824l314.24 341.424c12.528 14.144 34.144 15.44 48.288 2.928 1.088-0.976 2.128-2.016 3.088-3.12 14.304-15.952 14.304-40.112 0-56.080l-288.064-313.104c-14.288-15.968-14.288-40.112 0-56.080l288-313.056c14.256-15.488 14.32-40.512 0-56.112zM981.184 50.768c-12.496-14.224-34.224-15.648-48.448-3.072-1.008 0.912-2 1.84-2.928 2.896l-314.144 341.552c-28.4 31.856-28.4 79.968 0 111.824l314.24 341.424c12.528 14.144 34.16 15.44 48.304 2.928 1.104-0.976 2.128-2.016 3.072-3.12 14.304-15.952 14.304-40.112 0-56.080l-288.096-313.104c-14.288-15.968-14.288-40.112 0-56.080l288-313.056c14.272-15.488 14.352-40.512 0-56.112z" />
<glyph unicode="&#xe940;" glyph-name="f066" d="M605.136 106.88l288 313.056c14.304 15.968 14.304 40.112 0 56.080l-288.064 313.104c-14.304 15.968-14.304 40.128 0 56.080 0.96 1.104 2 2.144 3.088 3.12 14.144 12.512 35.744 11.216 48.288-2.928l314.24-341.424c28.4-31.856 28.4-79.968 0-111.824l-314.16-341.568c-0.912-1.040-1.888-1.984-2.912-2.896-14.256-12.56-35.936-11.136-48.48 3.072-14.304 15.616-14.24 40.64 0 56.128zM48.576 106.88l288 313.056c14.288 15.968 14.288 40.112 0 56.080l-288.096 313.104c-14.304 15.968-14.304 40.128 0 56.080 0.96 1.104 1.968 2.144 3.088 3.12 14.144 12.512 35.76 11.216 48.304-2.928l314.256-341.424c28.4-31.856 28.4-79.968 0-111.824l-314.176-341.568c-0.928-1.040-1.904-1.984-2.928-2.896-14.24-12.56-35.952-11.136-48.448 3.072-14.336 15.616-14.256 40.64 0 56.128z" />
<glyph unicode="&#xe941;" glyph-name="f067" d="M563.168 408.256h348.048c27.472 0 49.712 22.256 49.712 49.728 0 27.456-22.256 49.712-49.712 49.712h-795.504c-27.456 0-49.712-22.256-49.712-49.712 0-27.472 22.272-49.728 49.712-49.728h447.456z" />
<glyph unicode="&#xe942;" glyph-name="f068" d="M569.856 506.928h280.56c33.888 0 61.36-27.504 61.36-61.376 0-33.888-27.472-61.376-61.36-61.376h-683.856c-33.904 0-61.376 27.488-61.376 61.376s27.488 61.376 61.376 61.376h403.296z" />
<glyph unicode="&#xe943;" glyph-name="f069" d="M579.6 779.984h135.184v-135.2h-135.184v135.2zM444.384 644.768h135.2v-135.2h-135.2v135.2zM309.2 509.584h135.184v-135.2h-135.184v135.2zM444.384 374.384h135.216v-135.184h-135.216v135.184zM579.568 239.2h135.216v-135.2h-135.216v135.2z" />
<glyph unicode="&#xe944;" glyph-name="f070" d="M318.384 763.984h135.2v-135.2h-135.2v135.2zM183.2 628.768h135.2v-135.2h-135.2v135.2zM48 493.584h135.2v-135.2h-135.2v135.2zM183.2 358.384h135.216v-135.184h-135.216v135.184zM318.368 223.2h135.216v-135.2h-135.216v135.2zM835.6 763.984h135.184v-135.2h-135.184v135.2zM700.384 628.768h135.2v-135.2h-135.2v135.2zM565.2 493.584h135.184v-135.2h-135.184v135.2zM700.384 358.384h135.216v-135.184h-135.216v135.184zM835.568 223.2h135.216v-135.2h-135.216v135.2z" />
<glyph unicode="&#xe945;" glyph-name="f071" d="M309.2 239.2h135.184v-135.2h-135.184v135.2zM444.384 374.4h135.216v-135.184h-135.216v135.184zM579.616 509.616h135.168v-135.2h-135.168v135.2zM444.384 644.784h135.216v-135.168h-135.216v135.168zM309.2 779.984h135.216v-135.2h-135.216v135.2z" />
<glyph unicode="&#xe946;" glyph-name="f072" d="M565.2 223.2h135.2v-135.2h-135.2v135.2zM700.384 358.4h135.184v-135.184h-135.184v135.184zM835.584 493.616h135.2v-135.216h-135.2v135.216zM700.368 628.784h135.2v-135.168h-135.2v135.168zM565.2 763.984h135.216v-135.2h-135.216v135.2zM48 223.2h135.184v-135.2h-135.184v135.2zM183.184 358.4h135.216v-135.184h-135.216v135.184zM318.4 493.616h135.168v-135.216h-135.168v135.216zM183.184 628.784h135.216v-135.168h-135.216v135.168zM48 763.984h135.216v-135.2h-135.216v135.2z" />
<glyph unicode="&#xe947;" glyph-name="f073" d="M392.944 656.352h-119.056v-119.056h119.056v119.056zM571.536 656.352h-119.056v-119.056h119.056v119.056zM750.128 656.352h-119.056v-119.056h119.056v119.056zM392.944 477.76h-119.056v-119.056h119.056v119.056zM273.888 180.112h119.056v119.056h-119.056v-119.056zM392.944 894.464h-59.536v-119.056h59.536v119.056zM690.592 894.464h-59.536v-119.056h59.536v119.056zM571.536 834.944h-119.056v-59.536h119.056v59.536zM928.72 61.040v59.536h-119.072v-59.536h119.072zM809.648 239.648h59.552v59.536h-59.552v-59.536zM750.128 477.76h-59.536v-59.536h-178.592v-119.040h59.536v59.536h59.536v-59.536h-59.536v-119.056h-119.056v-59.536h119.056v-119.056h119.056v59.536h-59.536v178.576h59.536v119.056h178.592v-59.536h59.536v119.040h-178.592v59.552zM750.128 834.944v-59.536h119.056v-238.112h59.536v297.648h-178.592zM690.592 61.040h59.536v59.536h-59.536v-59.536zM154.816 775.408h119.056v59.536h-178.576v-833.424h357.184v59.536h-297.664v714.352zM690.592 180.112h59.536v-59.536h59.52v119.056h-119.040v-59.52z" />
<glyph unicode="&#xe948;" glyph-name="f074" horiz-adv-x="1025" d="M778.464-42.496c-12.288 0-24.56 3.072-37.872 10.256l-206.848 108.528c-5.12 3.072-12.304 5.12-20.48 5.12-7.168 0-15.36-2.048-20.48-4.096l-205.824-109.568c-12.288-7.168-24.576-10.256-38.912-10.256-24.576 0-48.128 11.264-64.512 29.696-16.384 18.416-22.528 43.008-18.432 67.584l39.936 229.376c2.048 14.336-3.072 28.672-13.312 38.912l-165.888 160.784c-23.552 22.528-31.744 55.296-21.504 86.016s35.84 52.224 67.584 57.344l229.376 33.792c14.336 2.048 27.648 11.264 33.792 23.552l102.4 208.896c14.336 28.672 43.008 46.080 74.752 46.080s60.416-17.408 74.752-46.080l102.384-208.896c7.168-13.312 19.456-21.504 33.792-23.552l229.392-33.792c31.744-5.12 57.344-26.624 67.584-56.32 10.24-30.72 2.048-63.488-20.48-86.016l-164.864-161.808c-11.264-10.24-15.36-24.56-13.312-38.912l38.928-228.336c4.096-24.576-2.064-49.152-18.432-67.6-15.376-19.44-38.928-30.704-63.52-30.704z" />
<glyph unicode="&#xe949;" glyph-name="f075" horiz-adv-x="1025" d="M639.664 311.76c-79.2 10.352-64.080 57.12-64.608 59.856 0.128 6.784 0.192 35.68 0.192 35.68s43.664 23.2 56.992 61.088c21.008 13.2 29.024 15.024 32.512 30.256 0 0 1.84 57.488-20.784 57.488 0 0-9.36-1.472-6.336 12 3.008 13.44 1.344 56.992-0.192 71.968-1.504 14.96 2.88 57.76-28.72 63.776-21.552 3.952-24.096-2.096-34.608-0.608-10.544 1.472-23.072 39.104-42.656 39.104l-40.624-16.944c-19.568 0-16.544-6-27.072-7.472-10.544-1.536 2.144 1.472-29.488-4.512-31.568-5.984-42.704-46.448-44.256-61.408-1.504-14.976-5.248-58.496-4.304-80.976 3.008-13.44-17.344-13.44-17.344-13.44-18.912 1.2-12.896-57.488-12.896-57.488 2.752-14.48 1.472-21.696 29.584-32.88 13.312-37.856 61.84-57.008 61.84-57.008s1.664-24.224 2.176-41.552c-2.832 1.408 15.024-44.224-72.064-56.976-87.104-12.8-101.2-47.744-104.288-56.528-12.96-31.28-13.216-128.896-13.216-128.896l504.448 0.992c0 0 0.88 112.336-15.552 127.904-16.448 15.712-21.616 43.792-108.736 56.576zM1017.296 127.536c0 0-7.984 80.448-46.896 102.896-12.576 11.952-24.112 33.536-90.848 43.296-66.736 9.792-53.584 43.792-54.016 45.84 0.096 5.2 2.416 27.392 2.416 27.392s27.328 17.792 37.568 46.8c16.064 10.080 4.128 11.536 6.768 23.168 0 0 6.288 51.6-7.040 44.080 0 0-12.656-1.168-10.368 9.184 2.336 10.336 4.208 43.664 3.040 55.136-1.152 11.472 2.208 44.272-22 48.864-16.544 3.056-2.368-1.6-10.448-0.432-8.048 1.12-17.664 16.064-32.656 16.064l-31.104-4.992c-15.008 0-12.736-4.592-20.8-5.76-8.096-1.12 1.632 1.168-22.56-3.424-24.192-4.576-18.608-29.664-19.76-41.184-1.152-11.408 1.44-40.88 2.176-58.080 2.288-10.336-5.616-14.288-5.616-14.288-14.528 0.944-7.984-44.048-7.984-44.048 2.112-11.072-3.216-16.624 18.256-25.168 10.24-29.008 25.984-43.664 25.984-43.664s0.8-20.032 1.184-33.296c25.936-15.12 34.976-32.656 48.032-51.968 19.024-21.616 17.872-136.416 17.872-136.416 87.008 0 218.8 0 218.8 0zM290.992 315.92c0.432 13.264 0.688 33.296 0.688 33.296s21.664 14.672 31.888 43.664c21.488 8.544 14.24 14.096 16.32 25.168 0 0 6.544 44.992-7.984 44.048 0 0-11.856 3.952-9.536 14.288 0.704 17.2 2.304 46.672 1.152 58.080-1.152 11.52 4.416 36.608-19.776 41.184-24.176 4.592-14.512 2.304-22.544 3.424-8.080 1.168-2.832 5.76-17.84 5.76l-31.136 4.992c-14.992 0-24.608-14.944-32.672-16.064-8.064-1.168 6.112 3.488-10.4 0.432-24.224-4.608-20.864-37.392-22-48.864-1.152-11.456-1.936-44.8 0.352-55.136 2.336-10.352-4.88-9.184-4.88-9.184-17.312 0-15.648-38.672-15.648-38.672 2.656-11.664-3.52-18.496 12.576-28.576 10.208-29.008 37.52-46.8 37.52-46.8s-1.12-22.192-1.008-27.392c-0.448-2.048 5.808-35.584-50.56-45.84-66.768-9.76-78.288-31.344-90.848-43.296-49.408-27.68-46.912-103.344-46.912-103.344s131.824 0 218.832 0c0 0-0.176 86.32 17.856 136.88 13.072 19.296 20.624 36.832 46.56 51.952z" />
<glyph unicode="&#xe94a;" glyph-name="f076" horiz-adv-x="1025" d="M887.056 610.96c-47.84 0-53.328-40.688-53.328-40.688v-453.328c0-19.12-15.536-34.608-34.752-34.608h-626.176c-19.216 0-34.8 15.488-34.8 34.608v624.048c0 19.12 15.6 34.656 34.8 34.656h448.208c0 0 39.92 17.328 39.92 50.928 0 0 2.32 53.088-36.848 53.088h-486.080c-57.632 0-104.336-46.56-104.336-104.016v-693.328c0-57.488 46.704-104.064 104.336-104.064h695.728c57.696 0 104.416 46.576 104.416 104.064v487.952c0 31.424-51.088 40.688-51.088 40.688zM605.616 424.64l295.696 286.304-131.376 124-298.816-294.96-45.872-115.056 58.704-63.888 121.664 63.6zM981.744 844.304l-74.032 77.008c0 0-22.064 29.984-47.84 4.224l-59.264-61.536 124.128-120.624 57.904 57.408c-0.016 0 24.048 18.624-0.896 43.52zM385.824 330.528l68.56 10.24-53.504 49.632-15.056-59.872z" />
<glyph unicode="&#xe94b;" glyph-name="f077" horiz-adv-x="1025" d="M821.392 871.056h-699.088c-42.912 0-77.68-31.68-77.68-70.816v-778.576c0-39.088 34.768-70.784 77.68-70.784h542.528l234.224 210.16v639.2c0 39.12-34.768 70.816-77.664 70.816zM842.032 169.84l-188.144-171.392c-33.952-30.944-26.688 23.2-26.688 23.2v141.568c0 34.288 36.416 34.288 36.416 34.288h163.84c57.040 1.088 14.576-27.664 14.576-27.664zM899.056 940.72h-660.224c-46.128 0-38.848-34.288-38.848-34.288l660.256-1.104c78.88 0 77.664-70.752 77.664-70.752v-672.48c38.848 0 38.848 35.408 38.848 35.408v676.88c-0.032 70.768-77.696 66.336-77.696 66.336z" />
<glyph unicode="&#xe94c;" glyph-name="f078" d="M6.224 748.16c-3.952-10.88-6.224-22.576-6.224-34.832v-523.728c0-28.736 11.872-54.672 30.944-73.248l376.496 282.304-401.216 349.504zM616.56 398.656l376.512-282.304c19.056 18.576 30.928 44.512 30.928 73.248v523.728c0 12.256-2.272 23.952-6.208 34.832l-401.232-349.504zM981.872 795.984c-16.912 12.368-37.696 19.744-60.272 19.744h-819.2c-22.56 0-43.36-7.376-60.304-19.744l419.216-363.664 25.568 16c0.32 0.096 0.72 0.096 0.992 0.24 13.28 7.328 35.008 7.328 48.304 0 0.256-0.144 0.672-0.128 0.976-0.24l25.6-16 419.12 363.664zM976 80.272l-438.16 312.656c-14.208 10.384-37.456 10.384-51.664 0l-438.176-312.656h928z" />
<glyph unicode="&#xe94d;" glyph-name="f079" d="M954.661 70.987h-498.588c-13.208 0-23.902 10.491-23.902 23.418v85.861h72.852v-36.427h400.689v291.411h-72.852v72.852h121.802c13.193 0 23.903-10.477 23.903-23.418v-390.278c-0.001-12.928-10.711-23.419-23.904-23.419zM772.53 216.693h-535.014c-13.208 0-23.902 10.491-23.902 23.418v426.704c0 12.942 10.695 23.418 23.902 23.418h535.014c13.193 0 23.902-10.477 23.902-23.418v-426.704c0.001-12.927-10.709-23.418-23.902-23.418zM304.678 654.19c-10.064 0-18.213-8.177-18.213-18.278s8.149-18.275 18.213-18.275c10.064 0 18.213 8.174 18.213 18.275s-8.148 18.278-18.213 18.278zM377.531 654.19c-10.064 0-18.213-8.177-18.213-18.278s8.149-18.275 18.213-18.275 18.213 8.174 18.213 18.275-8.149 18.278-18.213 18.278zM450.384 654.19c-10.064 0-18.213-8.177-18.213-18.278s8.149-18.275 18.213-18.275c10.064 0 18.213 8.174 18.213 18.275s-8.149 18.278-18.213 18.278zM723.58 580.955h-437.114v-291.41h437.114v291.41zM541.449 763.086h-437.114v-364.262h72.852v-72.852h-121.802c-13.208 0-23.902 10.491-23.902 23.418v463.13c0 12.942 10.695 23.418 23.902 23.418h535.014c13.193 0 23.903-10.477 23.903-23.418v-85.861h-72.852v36.427z" />
<glyph unicode="&#xe94e;" glyph-name="f080" d="M236.288 576h-26.283c-29.013 0-52.48-23.893-52.48-53.333v-399.957c0-29.525 23.552-53.333 52.48-53.333h26.283c29.013 0 52.48 23.808 52.48 53.333v399.957c0 29.44-23.467 53.333-52.48 53.333zM813.824 576h-393.813c-29.013 0-52.48-23.893-52.48-53.333v-26.709c0-29.44 23.552-53.333 52.48-53.333h393.813c29.013 0 52.48 23.893 52.48 53.333v26.709c0.085 29.44-23.467 53.333-52.48 53.333zM813.824 202.752h-393.813c-29.013 0-52.48-23.893-52.48-53.333v-26.709c0-29.525 23.467-53.333 52.48-53.333h393.813c29.013 0 52.48 23.808 52.48 53.333v26.709c0.085 29.44-23.467 53.333-52.48 53.333zM1022.123 655.957h1.792v133.376c0 58.88-47.019 106.667-105.045 106.667h-813.824c-58.027 0-105.045-47.787-105.045-106.667v-133.291h1.792c-0.256-3.413-1.792-6.315-1.792-9.728v-593.92c0-64.256 47.019-116.309 105.045-116.309h813.824c58.027 0 105.045 52.053 105.045 116.309v593.92c0 3.413-1.536 6.315-1.792 9.643zM367.531 842.667c0 14.763 11.776 26.709 26.283 26.709h26.283c14.507 0 26.283-11.947 26.283-26.709v-26.624c-0.085-14.763-11.861-26.709-26.368-26.709h-26.197c-14.507 0-26.283 11.947-26.283 26.709v26.624zM236.288 842.667c0 14.763 11.776 26.709 26.283 26.709h26.283c14.507 0 26.283-11.947 26.283-26.709v-26.624c-0.085-14.763-11.861-26.709-26.368-26.709h-26.197c-14.507 0-26.283 11.947-26.283 26.709v26.624zM105.045 842.667c0 14.763 11.776 26.709 26.283 26.709h26.283c14.507 0 26.283-11.947 26.283-26.709v-26.624c-0.085-14.763-11.861-26.709-26.368-26.709h-26.283c-14.507 0-26.283 11.947-26.283 26.709v26.624zM945.067 69.461c0-29.44-23.467-53.333-52.48-53.333h-761.344c-29.013 0-52.48 23.893-52.48 53.333v506.539c0 29.44 23.467 53.333 52.48 53.333h761.344c29.013 0 52.48-23.893 52.48-53.333v-506.539zM813.824 389.376h-393.813c-29.013 0-52.48-23.893-52.48-53.333v-26.709c0-29.525 23.552-53.333 52.48-53.333h393.813c29.013 0 52.48 23.808 52.48 53.333v26.709c0.085 29.44-23.467 53.333-52.48 53.333z" />
<glyph unicode="&#xe94f;" glyph-name="f081" horiz-adv-x="1025" d="M929.369 792.509l-1.714-309.114c0 0-5.165-167.491-184.12-167.491h-251.214l-111.861-115.69 184.12-1.714 252.95-262.5 8.615 269.401c0 0 197.877-13.824 197.877 162.304s0 260.764 0 260.764 8.593 105.316-94.653 164.040zM710.856 359.068c91.225 0 165.176 74.218 165.176 165.777v269.379c0 91.559-73.973 165.777-165.176 165.777h-545.48c-91.225 0-165.176-74.218-165.176-165.777v-269.379c0-91.559 73.951-165.777 165.176-165.777h13.891l1.603-245.203 272.963 245.203h257.024z" />
<glyph unicode="&#xe950;" glyph-name="f082" horiz-adv-x="1303" d="M1023.765 587.768c0-67.364-22.783-129.662-68.372-186.851-45.567-57.189-107.734-102.383-186.478-135.582s-164.418-49.799-257.043-49.799c-41.686 0-84.358 3.881-127.973 11.644-60.105-42.65-127.469-73.679-202.113-93.085-17.455-4.364-38.309-8.245-62.539-11.644h-2.193c-5.329 0-10.284 1.93-14.911 5.833-4.605 3.881-7.39 8.969-8.355 15.262-0.482 1.469-0.724 3.048-0.724 4.715 0 1.688 0.132 3.267 0.373 4.715 0.241 1.469 0.724 2.916 1.469 4.364l1.842 3.618c0 0 0.855 1.338 2.566 3.991s2.675 3.859 2.895 3.618c0.219-0.241 1.294 0.965 3.267 3.618 1.952 2.653 2.916 3.75 2.895 3.267 2.412 2.895 8.004 8.947 16.731 18.157 8.749 9.21 15.043 16.358 18.902 21.468s9.32 12.126 16.358 21.095c7.061 8.947 13.113 18.288 18.157 28.002s10.021 20.393 14.911 31.993c-60.105 34.91-107.361 77.801-141.766 128.697-34.449 50.939-51.663 105.234-51.663 162.905 0 67.364 22.783 129.662 68.372 186.851 45.567 57.189 107.734 102.383 186.478 135.582s164.396 49.799 256.999 49.799c92.581 0 178.277-16.6 257.043-49.799s140.933-78.394 186.478-135.582c45.545-57.189 68.328-119.465 68.372-186.851h0.022zM1302.955 401.619c0-58.176-17.214-112.58-51.619-163.234-34.427-50.654-81.683-93.436-141.766-128.346 4.868-11.644 9.824-22.323 14.911-31.993 5.087-9.692 11.14-19.034 18.157-28.002 7.039-8.991 12.477-16.008 16.358-21.095s10.175-12.236 18.902-21.468c8.706-9.232 14.297-15.284 16.731-18.157 0.482-0.482 1.447-1.579 2.895-3.267s2.522-2.895 3.267-3.618c0.724-0.724 1.688-1.952 2.895-3.618 1.184-1.688 2.039-3.004 2.566-3.991l1.842-3.618c0 0 0.482-1.447 1.469-4.364 0.987-2.895 1.096-4.473 0.373-4.715s-0.987-1.82-0.724-4.715c-1.469-6.776-4.605-12.126-9.451-16.008-4.824-3.881-10.175-5.57-16.008-5.087-24.231 3.399-45.085 7.28-62.539 11.644-74.644 19.385-142.007 50.413-202.113 93.085-43.615-7.763-86.266-11.644-127.973-11.644-131.35 0-245.75 31.993-343.199 95.958 28.112-1.93 49.448-2.895 63.965-2.895 78.043 0 152.928 10.92 224.677 32.739s135.714 53.088 191.938 93.809c60.588 44.602 107.12 95.98 139.617 154.156s48.725 119.728 48.703 184.68c0 37.322-5.57 74.161-16.731 110.497 62.539-34.427 111.988-77.56 148.323-129.443s54.514-107.602 54.514-167.225l0.022-0.066z" />
<glyph unicode="&#xe951;" glyph-name="f083" d="M713.075 735.799h-521.772c-54.132 0-98.031-43.899-98.031-98.031v-342.186c0-54.234 43.899-98.133 98.031-98.133h81.453v-134.152c0-18.726 21.284-29.368 36.224-18.112l203.019 152.265h201.075c54.234 0 98.031 43.899 98.031 98.031v342.288c0 54.132-43.899 98.031-98.031 98.031zM274.291 419.092c-24.763 0-44.82 20.056-44.82 44.82s20.056 44.82 44.82 44.82c24.763 0 44.82-20.056 44.82-44.82 0.102-24.661-20.056-44.82-44.82-44.82zM453.775 419.092c-24.763 0-44.82 20.056-44.82 44.82s20.056 44.82 44.82 44.82c24.763 0 44.82-20.056 44.82-44.82 0.102-24.661-20.056-44.82-44.82-44.82zM633.259 419.092c-24.763 0-44.82 20.056-44.82 44.82s20.056 44.82 44.82 44.82c24.763 0 44.82-20.056 44.82-44.82 0-24.661-20.056-44.82-44.82-44.82zM739.578 765.678c55.974 0 101.407-45.434 101.407-101.407v-346.893c50.243 4.195 89.742 46.252 89.742 97.724v308.929c0 72.551-58.839 131.39-131.39 131.39h-488.413c-51.267 0-93.426-39.396-97.724-89.742h526.377z" />
<glyph unicode="&#xe952;" glyph-name="f084" horiz-adv-x="1194" d="M1143.712 427.84c19.456-13.968 21.376-38.080 4.224-53.904-1.248-1.152-2.544-2.224-3.952-3.232l-467.088-235.712c-43.584-31.584-109.376-31.584-152.944 0l-466.928 235.792c-19.344 13.92-21.12 37.952-4 53.696 1.328 1.2 2.752 2.336 4.272 3.408 21.824 15.904 54.864 15.904 76.704 0l428.144-206.656c21.84-15.888 54.88-15.888 76.704 0l428.16 206.608c21.152 15.84 55.344 15.92 76.704 0zM1143.712 748c19.456-13.936 21.376-38.064 4.224-53.904-1.248-1.136-2.544-2.224-3.952-3.248l-467.088-235.68c-43.584-31.616-109.376-31.616-152.944 0l-466.928 235.76c-19.344 13.936-21.12 37.984-4 53.712 1.328 1.232 2.752 2.384 4.272 3.456 21.824 15.888 54.864 15.888 76.704 0l428.144-206.688c21.84-15.904 54.88-15.904 76.704 0l428.16 206.592c21.152 15.84 55.344 15.92 76.704 0z" />
<glyph unicode="&#xe953;" glyph-name="f085" horiz-adv-x="1194" d="M425.712 490.784l-16.832-70.656c74.32 1.936 106.032 19.344 218.016 108.384 111.984 89.024 98.112 241.952 98.112 241.952 34.688 8.704 56.496 33.872 56.496 33.872-86.224 88.064-133.776 0-133.776 0h-19.84c-54.496 30-152.608 13.552-152.608 13.552-14.864 86.128-111.664 17.408-111.664 17.408 3.312-29.68 42.96-24.512 42.96-24.512 0.016-0.016 0.032-0.048 0.048-0.064-5.968-77.296-32.16-114.864-57.28-133.088-28.624 2.864-48.48 5.744-48.48 5.744-13.216 45.488-42.624 39.68-42.624 39.68-47.568-3.872-49.552-128.72 0-186.784s167.472-45.488 167.472-45.488zM525.312 711.92c0.736 15.472 7.856 22.592 16.848 25.44 0.976-0.576 1.952-1.152 2.88-1.712 11.456-6.944 10.832-34.544 10.832-34.544-1.744-7.792-8.512-13.664-18.752-18.032-7.6 4.192-12.576 12.752-11.808 28.848zM429.68 724.016c13.872 8.224 26.272 7.264 26.272-28.064 0-12.096-9.664-19.424-22.352-23.84-1.504 0.032-3.024 0.064-4.544 0.112-5.728 16.304-10.080 45.44 0.624 51.792zM396.656 472.704l-67.376 5.168c0 0-23.792-33.568-25.12-54.224-1.328-20.624-11.888-72.256 42.288-54.192 54.16 18.096 50.208 103.248 50.208 103.248zM672.816 546.256c0 0-74-99.344-210.096-143.248 0 0-62.096-141.936-76.64-180.656-14.544-38.704-39.648-103.232-13.216-125.168 26.416-21.936 101.664 98.080 128.784 167.76l15.392-10.336c0 0-59.616-101.936-50.368-140.656s46.528-74.256 96.448 56.784c21.152 55.472 21.152 55.472 21.152 55.472s9.248-68.368 74-100.624c0 0 26.416 134.192 130.816 98.048 0 0-107.024 0.016-101.728-105.792 0 0-89.856-16.848-89.856-39.392s5.296-51.312 265.6-17.392c79.28 10.32 40.96 149.664 13.2 193.552s-183.68 205.184-203.488 291.648zM984.656 363.008c-29.088-30.976-113.648-69.664-113.648-69.664 26.8-10.528 34.352-65.808 34.352-65.808 13.808-3.152 22.448 0 22.448 0 81.936 37.424 56.848 135.472 56.848 135.472z" />
<glyph unicode="&#xe954;" glyph-name="f086" horiz-adv-x="1194" d="M573.84 632.976c0-9.632-8.524-17.44-19.040-17.44s-19.040 7.808-19.040 17.44c0 9.632 8.524 17.44 19.040 17.44s19.040-7.808 19.040-17.44zM616.105 591.747c3.114-8.533-2.726-18.504-13.044-22.269s-21.207 0.1-24.321 8.634c-3.114 8.533 2.726 18.504 13.044 22.269s21.207-0.1 24.321-8.634zM969.216 299.104c3.728 4.080 6.8 7.84 9.024 11.216 0.016 0.016-3.232-4.144-9.024-11.216zM969.216 299.104c-51.264-56.24-232.784-173.968-228.16-167.616 48.432 63.344 21.728 92.528 16.16 103.072-28.56 46.56-71.424 24.832-71.424 27.312 5.616 14.304-23.584 93.136-26.688 93.744-57.104-0.608-85.68 36.64-89.408 40.352-18.64 17.392 42.96 66 42.96 66s-11.12 15.568-12.304 16.832c-26.992-26.592-95.856-77.84-96.48-79.088-18.624-3.104-19.872-27.328-19.872-27.328l-24.832-105.552c-18.64 2.48-50.912 1.248-71.408-28.56-29.184-47.184 29.808-108.64 38.496-119.2 22.352-31.040-7.44-36.016-11.168-32.288-31.040 26.064-53.392 9.312-57.12 5.584-20.48-19.248-4.336-44.704-4.336-44.704s96.24 1.232 95.616 1.232c4.336-26.688 18-29.168 22.976-30.416 37.264-6.208 53.392 29.184 53.392 29.184s121.696 1.856 121.696 0.624c21.104-30.432 37.872-27.936 42.848-30.432 37.248-14.272 32.304 31.664 32.304 31.664s86.304-1.232 87.536 0c16.768 14.912 4.976 37.264 1.232 40.352-18 22.976-49.040 6.224-49.040 6.848-34.16-22.992-36-0.624-34.768 0 93.376 27.456 209.104 162.432 241.792 202.384zM582.448 69.232c-34.112 0-61.76 12.256-61.76 64.128 0 51.888 27.648 123.744 61.76 123.744s61.76-71.856 61.76-123.744c0.016-51.872-27.648-64.128-61.76-64.128zM751.008 556.208c-6.832 14.272-55.264 60.224-61.552 64.576-6.304 4.336-6.752 8.688-4.896 15.52 11.792 37.872-29.168 49.056-30.4 49.056-7.376 0.848-9.936 2.464-10.56 3.984 1.344 1.216 8 10.752 31.024 47.552 41.616 66.432-17.376 81.968-19.232 88.16-1.856 6.208-99.968 49.664-149.008 47.2-49.056-2.496-40.352-45.328-42.848-50.304s1.872-69.536 27.328-101.824c25.456-32.288 47.184-0.624 47.184-0.624s11.792 30.416 31.024 36.64c19.28 6.208 12.432 11.792 38.512-9.936s0-53.392 0-53.392c-130.384-1.248-239.040-58.992-252.080-67.056-132.88-85.056-36.016-155.216-27.952-158.336 22.432-3.712 15.984-22.128 16.768-24.208 26.704-63.952 104.928-56.512 127.28-54.64 22.352 1.856 29.808 26.768 30.432 27.312 14 12.656 61.456 58.992 77.6 61.456 45.328 6.208 84.432 111.152 91.28 105.568 45.328-47.808 10.56-63.328 8.080-72.64-2.48-9.328-63.952-49.68-63.952-49.68l47.184-101.824c0 0 65.792-2.48 88.784 46.56 45.952 93.136 3.104 144.032 0 150.88zM462.032 460.032l-99.632 17.408 16.608 88.544c94.896-18.976 83.024-105.952 83.024-105.952zM644.832 692.784c0 0-1.008-1.936-1.392-2.976-0.272 1.616 1.392 2.976 1.392 2.976zM486.016 606.656c-7.008 15.648 14.016 40.304 46.992 55.072 32.96 14.768 65.376 14.064 72.368-1.584 7.008-15.648-14.032-40.304-46.992-55.072-32.96-14.784-65.36-14.080-72.368 1.584zM621.040 550.672c-26.896-24.112-57.968-33.296-69.408-20.544-11.44 12.784 1.088 42.672 27.984 66.768 26.896 24.112 57.984 33.312 69.424 20.544s-1.104-42.672-28-66.768z" />
<glyph unicode="&#xe955;" glyph-name="f087" d="M296.1 149.2c16.8 45.9-19.1 87.6-62.5 82.8-29.1-3.2-45.8-19.9-51.6-42.1-20.9-80.4 90.7-104.3 114.1-40.7zM131.7 487.4c79.3 0 139.9 0 214.6 0 27.2 0 83.6-6.3 104.6 2.7 32.3 13.8 23.1 73.5 23.1 122.2 0 83.8 0 139.5 0 224.1 0 47.1 9.9 119.5-31.3 123.6-134.9 0-269.8 0-404.7 0-15.9-4.9-25.7-16-31.2-31.2 0-136.7 0-273.4 0-410.1 7.6-43.2 75.3-31.3 124.9-31.3zM95.1 871.7c96.9 0 193.8 0 290.6 0 0-98.7 0-197.4 0-296.1-97.3 0-194.7 0-292 0 0 97.3 0 194.7 0 292-0.1 2-0.2 3.9 1.4 4.1zM211.9 669.4c39-20.4 89.2 6.6 88.3 55.7-0.7 37.2-32.7 64.7-73.3 57-56.8-10.7-59.7-89.4-15-112.7zM915.4-64c23.1 0 46.2 0 69.3 0 17.5 5.6 28.8 17.4 32.6 36.7 0 23.1 0 46.2 0 69.3-33.5 0-67 0-100.5 0-3.3-32.7-0.5-71.1-1.4-106zM770 663.9c94-15.6 95.8 136 0 118.2-61.7-11.5-59.8-108.2 0-118.2zM446.8 407.3c-27.8 8.2-72.5 1.4-103.2 1.4-68.3 0-134.6 0-207.8 0-31.8 0-75.3 6.1-101.9-1.4-14.1-4-23.2-17.9-27.2-29.9 0-136.3 0-272.5 0-408.8 4.7-17 16-27.5 32.6-32.6 133.5 0 267.1 0 400.6 0 45.3 4.7 34 73.5 34 126.3 0 76.5 0 140.7 0 215.9 0.1 49 10.5 117.9-27.1 129.1zM385.7 24.3c-97.3 0-194.7 0-292 0 0 97.3 0 194.7 0 292-0.1 1.9-0.2 3.8 1.4 4.1 96.9 0 193.8 0 290.6 0 0-98.7 0-197.4 0-296.1zM986 960c-134.9 0-269.8 0-404.7 0-43.7-7.9-31.3-75.1-31.3-131.7 0-68 0-144 0-209.1 0-49-10.1-119.1 25.8-130.4 25.4-8 71.9-1.4 103.2-1.4 72.3 0 133.3 0 207.8 0 31.6 0 75.5-6.1 101.9 1.4 16.2 4.5 24.8 18.7 28.5 35.3 0 133.1 0 266.2 0 399.3-3.4 19.2-14.7 30.5-31.2 36.6zM928.9 575.7c-97.3 0-194.7 0-292 0 0 97.3 0 194.7 0 292-0.1 1.9-0.2 3.8 1.4 4.1 96.9 0 193.8 0 290.6 0 0-98.8 0-197.5 0-296.1zM930.3 408.6c-3.2-57.5-0.5-120.9-1.4-180.6-30.3 0-60.7 0-91 0 0 60.2 0 120.4 0 180.6-68.4 0-129 0-196.9 0-40.2 0-80.4 4.6-89.6-25.8-7.8-25.5-1.4-72.9-1.4-104.6 0-72.5 0-134.8 0-210.5 0-54.3-12.9-122.6 32.6-131.7 17.7 0 35.3 0 53 0 0.9 88.3-1.8 180.2 1.4 266.2 29.4-0.9 62.5 1.8 89.6-1.4 0-22.2 0-44.4 0-66.5 96.4 0 192.8 0 289.3 0 0.9 40.7-1.8 85.1 1.4 123.6 0 38 0 76.1 0 114.1-2.7 38.6-43.2 39.2-87 36.6zM726.6-64c32.6 0 65.2 0 97.8 0 0 35.3 0 70.6 0 105.9-32.1 0-64.3 0-96.4 0-3.2-32.6-0.5-71-1.4-105.9z" />
<glyph unicode="&#xe956;" glyph-name="f088" d="M25.6 476.613h457.789v457.787h-457.789v-457.787zM540.613 476.611h457.789v457.789h-457.789v-457.789zM883.953 591.059h-228.894v228.894h228.894v-228.894zM154.975 605.813h199.211v199.213h-199.211v-199.213zM25.6-38.4h457.789v457.789h-457.789v-457.789zM140.048 304.942h228.894v-228.894h-228.894v228.894zM826.73 762.73h-114.448v-114.447h114.447v114.447h0.001zM540.613-38.4h114.447v114.447h-114.447v-114.447zM655.059 304.942v-228.894h114.447v228.894h-114.447zM883.953 76.047h-114.447v-114.447h228.894v228.895h-114.447v-114.448zM883.953 304.942h114.447v114.447h-114.447v-114.447zM540.613 419.389v-114.447h114.447v114.447h-114.447zM197.271 133.271h114.447v114.447h-114.447v-114.447z" />
<glyph unicode="&#xe957;" glyph-name="f089" d="M92 538h840v-180h-840v180z" />
<glyph unicode="&#xe958;" glyph-name="f090" d="M89.552 839.76v-783.536h843.792v783.536h-843.792zM873.088 116.496h-723.264v542.448h723.28v-542.448z" />
<glyph unicode="&#xe959;" glyph-name="f091" d="M331.104 484.112l111.344-193.664c0 0 180.896 393.568 466.128 524.736-6.976-93.696-34.784-174.928 13.936-274.848-125.296-24.992-382.656-306.064-466.192-443.504-118.256 131.152-257.392 231.072-354.816 262.368l229.6 124.912z" />
<glyph unicode="&#xe95a;" glyph-name="f092" d="M971.918-64.001v0zM513.769 773.638c-31.312 0-59.272 29.45-59.272 62.629s27.956 62.629 59.272 62.629c34.854 0 59.272-29.45 59.272-62.629 0-40.449-27.956-62.629-59.272-62.629v0zM677.421 869.442c-17.334 0-27.956 14.726-27.956 29.45v0c0 29.45-24.417 55.171-55.729 55.171h-163.836c-31.312 0-55.729-25.722-55.729-55.171v0c0-18.451-13.979-29.45-27.956-29.45h-20.876c-17.334 0-27.956-14.726-27.956-29.45v-88.349c0-18.451 13.979-29.45 27.956-29.45h369.426c17.334 0 27.956 14.726 27.956 29.45v88.349c0 18.451-13.979 29.45-27.956 29.45h-17.334zM799.508 490.138l-310.153-383.219c-6.895-10.997-27.956-7.456-38.397 3.729l-209.128 180.425c-3.541 3.729-6.895 10.997 0 14.726l38.397 47.903c3.541 3.729 10.438 3.729 13.979 0l163.836-139.981c6.895-3.729 13.979-3.729 20.876 3.729l257.777 331.588c3.541 7.456 10.438 7.456 13.979 3.729l48.832-44.176c6.895-3.729 10.438-7.456 0-18.451v0zM799.508 803.087v-128.982c0-18.451-13.979-29.45-27.956-29.45l-519.285-3.729c-17.334 0-27.956 14.726-27.956 29.45v128.982c0 18.451-13.979 29.45-27.956 29.45h-17.334c-45.293 3.729-66.171-25.722-66.171-66.355v-718.348c0-33.177 31.312-77.351 73.251-77.351h651.621c34.854 0 73.251 40.449 73.251 77.351v722.263c0 33.177-24.417 66.355-62.813 66.355h-17.334c-17.334-0.187-31.312-11.186-31.312-29.636v0zM379.384 164.328v0z" />
<glyph unicode="&#xe95b;" glyph-name="f093" d="M512 960c-282.768 0-512-229.232-512-512s229.232-512 512-512 512 229.232 512 512-229.232 512-512 512zM512-16c-256.256 0-464 207.712-464 464s207.744 464 464 464 464-207.712 464-464-207.744-464-464-464zM512 864c-229.744 0-416-186.24-416-416s186.256-416 416-416 416 186.24 416 416-186.256 416-416 416zM721.952 692.736l-178.496-196.128v-28.88l149.632-0.128c14.112-0.432 25.44-11.952 25.44-26.176s-11.328-25.728-25.44-26.176v-0.032h-0.336c-0.16 0-0.304-0.048-0.464-0.048s-0.304 0.048-0.464 0.048h-148.368v-55.008l149.632-0.128c14.112-0.432 25.44-11.952 25.44-26.176s-11.328-25.728-25.44-26.176v-0.032h-0.336c-0.16 0-0.304-0.048-0.464-0.048s-0.304 0.048-0.464 0.048h-148.368v-125.008l-0.144 16c0-18.784-15.248-34.048-34.048-34.048-18.816 0-34.064 15.264-34.064 34.048 0 0.032 0-15.952 0-15.92v124.928h-146.96c-0.16 0-0.304-0.048-0.464-0.048-14.496 0-26.24 11.76-26.24 26.256s11.744 26.256 26.24 26.256c0.144 0 0.272-0.048 0.416-0.048v0.096h147.008v55.008l-147.008 0.016c-0.224 0-0.432-0.064-0.672-0.064-14.496 0-26.24 11.76-26.24 26.256s11.744 26.256 26.24 26.256c0.224 0 0.432-0.064 0.672-0.064v0.112h147.008v28.88l-175.872 196.128c0 0-18.496 53.504 39.328 34.496 20.624-6.784 36.8-34.496 36.8-34.496l136.496-146.256 139.12 146.256c0 0 16.512 29.696 40.080 34.496 55.68 11.328 30.8-34.496 30.8-34.496z" />
<glyph unicode="&#xe95c;" glyph-name="f094" horiz-adv-x="1280" d="M1.536 465.237l258.645-229.035 272.896 229.035-272.896 228.949-258.645-228.949zM1279.573 666.795v292.096h-511.573v-96.683h-224.341v-778.581h223.232v-146.517h510.293v299.264h-510.379v-55.125h-109.739v586.24h110.933v-100.693h511.573z" />
<glyph unicode="&#xe95d;" glyph-name="f095" d="M682.667 377.486c-35.3-92.473-104.676-249.97-168.021-249.97s-133.973 157.468-169.984 249.941c-151.41-63.289-259.925-208.896-270.137-381.156h878.308c-10.183 172.26-118.727 317.895-270.165 381.184zM513.707 443.136c130.987 0 237.198 106.212 237.198 237.198s-106.183 237.17-237.198 237.17c-130.987 0-237.198-106.183-237.198-237.17s106.212-237.198 237.198-237.198z" />
<glyph unicode="&#xe95e;" glyph-name="f096" d="M599.475 959.307v-169.805c-68.83 0-496.218-3.481-496.218-418.345 0-223.337 160.562-405.963 368.198-435.157-129.228 27.422-226.45 145.967-226.45 288.117 0 271.376 254.57 273.686 354.47 273.686v-199.463l330.031 329.228-330.031 331.74z" />
<glyph unicode="&#xe95f;" glyph-name="f097" d="M511 5.139c-119.282 0-231.433 46.147-315.761 129.9-84.343 83.848-130.77 195.275-130.754 313.834 0 118.546 46.461 229.99 130.823 313.806 84.324 83.784 196.474 129.933 315.773 129.933 119.333 0 231.467-46.148 315.829-129.933 174.126-173.056 174.108-454.568 0-627.56-84.379-83.798-196.577-129.979-315.91-129.979v0 0 0 0zM511.081 834.779c-103.768 0-201.273-40.118-274.639-112.989-73.363-72.854-113.76-169.805-113.76-272.918-0.017-103.125 40.363-200.058 113.695-272.946 73.345-72.838 170.888-113.002 274.623-113.002 103.785 0 201.374 40.198 274.754 113.086 151.415 150.441 151.415 395.285 0 545.78-73.362 72.872-170.905 112.989-274.673 112.989v0 0 0 0zM352.371 327.766c0 0 52.331-83.108 158.612-83.108 106.283 0 175.984 83.108 175.984 83.108s39.508 0.131 39.491-41.547c0 0-68.501-96.963-215.476-96.963s-194.815 96.963-194.815 96.963-1.448 41.547 36.203 41.547v0 0 0zM381.215 591.56c-30.11 0-54.696-24.34-54.696-54.349 0-29.977 24.571-54.319 54.696-54.319 30.258 0 54.697 24.341 54.697 54.319 0 30.008-24.44 54.349-54.697 54.349v0 0 0 0zM661.446 591.56c-30.16 0-54.662-24.34-54.662-54.349 0-29.977 24.502-54.319 54.662-54.319 30.224 0 54.693 24.341 54.693 54.319 0 30.008-24.468 54.349-54.693 54.349v0 0 0 0z" />
<glyph unicode="&#xe960;" glyph-name="f098" d="M829.888 211.856l-246.112 246.112 246.112 246.112c19.408 19.424 19.424 50.896-0.016 70.32-19.424 19.408-50.896 19.408-70.32 0l-246.096-246.112-246.096 246.096c-19.424 19.424-50.896 19.424-70.32 0-19.408-19.408-19.408-50.88 0.016-70.32l246.080-246.080-246.080-246.096c-19.408-19.424-19.408-50.896 0-70.32 19.424-19.44 50.912-19.424 70.32-0.016l246.096 246.112 246.128-246.128c19.424-19.424 50.88-19.424 70.304 0s19.408 50.896-0.016 70.32z" />
<glyph unicode="&#xe961;" glyph-name="f099" d="M296 416c0-51.544-41.784-93.328-93.328-93.328s-93.328 41.784-93.328 93.328c0 51.544 41.784 93.328 93.328 93.328s93.328-41.784 93.328-93.328zM610.688 416c0-51.552-41.792-93.344-93.344-93.344s-93.344 41.792-93.344 93.344c0 51.552 41.792 93.344 93.344 93.344s93.344-41.792 93.344-93.344zM925.36 416c0-51.552-41.792-93.344-93.344-93.344s-93.344 41.792-93.344 93.344c0 51.552 41.792 93.344 93.344 93.344s93.344-41.792 93.344-93.344z" />
<glyph unicode="&#xe962;" glyph-name="f100" d="M959.872 832c0.064-0.064 0.064-0.064 0.128-0.128v-767.744c-0.064-0.064-0.064-0.064-0.128-0.128h-895.744c-0.064 0.064-0.064 0.064-0.128 0.128v767.744c0.064 0.064 0.064 0.064 0.128 0.128h895.744zM960 896h-896c-35.2 0-64-28.8-64-64v-768c0-35.2 28.8-64 64-64h896c35.2 0 64 28.8 64 64v768c0 35.2-28.8 64-64 64v0zM832 672c0-52.992-43.008-96-96-96s-96 43.008-96 96 43.008 96 96 96 96-43.008 96-96zM896 128h-768v128l224 384 256-320h64l224 192z" />
<glyph unicode="&#xe963;" glyph-name="f101" d="M320 896h-256v-256h256v256zM384 960v-384h-384v384h384zM128 832h128v-128h-128v128zM960 896h-256v-256h256v256zM1024 960v-384h-384v384h384zM768 832h128v-128h-128v128zM320 256h-256v-256h256v256zM384 320v-384h-384v384h384zM128 192h128v-128h-128v128zM448 960h64v-64h-64v64zM512 896h64v-64h-64v64zM448 832h64v-64h-64v64zM512 768h64v-64h-64v64zM448 704h64v-64h-64v64zM512 640h64v-64h-64v64zM448 576h64v-64h-64v64zM448 448h64v-64h-64v64zM512 384h64v-64h-64v64zM448 320h64v-64h-64v64zM512 256h64v-64h-64v64zM448 192h64v-64h-64v64zM512 128h64v-64h-64v64zM448 64h64v-64h-64v64zM512 0h64v-64h-64v64zM960 448h64v-64h-64v64zM64 448h64v-64h-64v64zM128 512h64v-64h-64v64zM0 512h64v-64h-64v64zM256 512h64v-64h-64v64zM320 448h64v-64h-64v64zM384 512h64v-64h-64v64zM576 448h64v-64h-64v64zM640 512h64v-64h-64v64zM704 448h64v-64h-64v64zM768 512h64v-64h-64v64zM832 448h64v-64h-64v64zM896 512h64v-64h-64v64zM960 320h64v-64h-64v64zM576 320h64v-64h-64v64zM640 384h64v-64h-64v64zM704 320h64v-64h-64v64zM832 320h64v-64h-64v64zM896 384h64v-64h-64v64zM960 192h64v-64h-64v64zM576 192h64v-64h-64v64zM640 256h64v-64h-64v64zM768 256h64v-64h-64v64zM832 192h64v-64h-64v64zM896 256h64v-64h-64v64zM960 64h64v-64h-64v64zM640 128h64v-64h-64v64zM704 64h64v-64h-64v64zM768 128h64v-64h-64v64zM832 64h64v-64h-64v64zM640 0h64v-64h-64v64zM768 0h64v-64h-64v64zM896 0h64v-64h-64v64z" />
<glyph unicode="&#xe964;" glyph-name="f102" d="M1024 530.752c0 200.928-58.784 363.936-131.488 365.216 0.288 0 0.576 0.032 0.864 0.032h-82.944c0 0-194.816-146.336-475.232-203.744-8.576-45.28-14.016-99.264-14.016-161.504s5.472-116.192 14.016-161.504c280.416-57.408 475.232-203.744 475.232-203.744h82.944c-0.288 0-0.576 0.032-0.864 0.032 72.704 1.28 131.488 164.288 131.488 365.216zM864.832 220.736c-9.376 0-19.52 9.728-24.736 15.552-12.64 14.080-24.8 35.968-35.2 63.328-23.264 61.216-36.064 143.296-36.064 231.136 0 87.808 12.8 169.888 36.064 231.136 10.4 27.36 22.56 49.28 35.2 63.328 5.216 5.824 15.36 15.552 24.736 15.552s19.552-9.728 24.736-15.552c12.64-14.080 24.8-35.968 35.2-63.328 23.264-61.216 36.064-143.328 36.064-231.136s-12.8-169.888-36.064-231.136c-10.4-27.36-22.56-49.28-35.2-63.328-5.216-5.792-15.36-15.552-24.736-15.552zM251.808 530.752c0 51.936 3.808 102.432 11.040 149.088-47.36-6.56-88.928-10.336-140.352-10.336-67.072 0-67.072 0-67.072 0l-55.424-94.688v-88.16l55.456-94.688c0 0 0 0 67.072 0 51.392 0 92.96-3.776 140.352-10.336-7.264 46.688-11.072 97.152-11.072 149.12zM368.16 317.824l-128 24.512 81.856-321.536c4.224-16.64 20.736-25.024 36.672-18.656l118.56 47.456c15.936 6.368 22.336 23.968 14.208 39.072l-123.296 229.152zM864.832 411.264c-3.616 0-7.52 3.744-9.536 5.984-4.864 5.408-9.568 13.856-13.568 24.416-8.96 23.616-13.888 55.232-13.888 89.088s4.928 65.472 13.888 89.088c4 10.56 8.704 18.976 13.568 24.416 2.016 2.24 5.92 5.984 9.536 5.984s7.52-3.744 9.536-5.984c4.864-5.408 9.568-13.856 13.568-24.416 8.96-23.584 13.888-55.232 13.888-89.088s-4.928-65.472-13.888-89.088c-4-10.56-8.704-18.976-13.568-24.416-2.016-2.208-5.92-5.984-9.536-5.984z" />
<glyph unicode="&#xe965;" glyph-name="f103" d="M384 896h-320c-35.2 0-64-28.8-64-64v-320c0-35.2 28.8-64 64-64h320c35.2 0 64 28.8 64 64v320c0 35.2-28.8 64-64 64zM384 640h-320v64h320v-64zM896 896h-320c-35.2 0-64-28.8-64-64v-832c0-35.2 28.8-64 64-64h320c35.2 0 64 28.8 64 64v832c0 35.2-28.8 64-64 64zM896 320h-320v64h320v-64zM896 512h-320v64h320v-64zM384 384h-320c-35.2 0-64-28.8-64-64v-320c0-35.2 28.8-64 64-64h320c35.2 0 64 28.8 64 64v320c0 35.2-28.8 64-64 64zM384 128h-128v-128h-64v128h-128v64h128v128h64v-128h128v-64z" />
</font>
</defs>
</svg>
